<?xml version="1.0" encoding="UTF-8" standalone="no"?>
<!-- Created with Inkscape (http://www.inkscape.org/) -->

<svg
   xmlns:dc="http://purl.org/dc/elements/1.1/"
   xmlns:cc="http://creativecommons.org/ns#"
   xmlns:rdf="http://www.w3.org/1999/02/22-rdf-syntax-ns#"
   xmlns:svg="http://www.w3.org/2000/svg"
   xmlns="http://www.w3.org/2000/svg"
   xmlns:sodipodi="http://sodipodi.sourceforge.net/DTD/sodipodi-0.dtd"
   xmlns:inkscape="http://www.inkscape.org/namespaces/inkscape"
   width="135.46667mm"
   height="135.46667mm"
   viewBox="0 0 135.46667 135.46667"
   version="1.1"
   id="svg8"
   inkscape:version="0.92.3 (2405546, 2018-03-11)"
   sodipodi:docname="drawing.svg">
  <defs
     id="defs2" />
  <sodipodi:namedview
     id="base"
     pagecolor="#ffffff"
     bordercolor="#666666"
     borderopacity="1.0"
     inkscape:pageopacity="0.0"
     inkscape:pageshadow="2"
     inkscape:zoom="0.7"
     inkscape:cx="441.7924"
     inkscape:cy="75.110883"
     inkscape:document-units="mm"
     inkscape:current-layer="g3817"
     showgrid="false"
     inkscape:window-width="1280"
     inkscape:window-height="961"
     inkscape:window-x="-8"
     inkscape:window-y="-8"
     inkscape:window-maximized="1"
     fit-margin-top="0"
     fit-margin-left="0"
     fit-margin-right="0"
     fit-margin-bottom="0" />
  <metadata
     id="metadata5">
    <rdf:RDF>
      <cc:Work
         rdf:about="">
        <dc:format>image/svg+xml</dc:format>
        <dc:type
           rdf:resource="http://purl.org/dc/dcmitype/StillImage" />
        <dc:title></dc:title>
      </cc:Work>
    </rdf:RDF>
  </metadata>
  <g
     inkscape:label="Layer 1"
     inkscape:groupmode="layer"
     id="layer1"
     transform="translate(-0.16874219,-0.25501633)">
    <g
       id="g3817"
       transform="matrix(2.2577778,0,0,2.2577778,21.469044,51.617856)">
      <g
         id="g3760">
	
	<g
   id="g4791"
   transform="translate(-9.4341887,-22.749289)">
  <path
     style="fill:#018abd;fill-opacity:1"
     inkscape:connector-curvature="0"
     d="M 30,0 C 13.458,0 0,13.458 0,30 0,46.542 13.458,60 30,60 46.542,60 60,46.542 60,30 60,13.458 46.542,0 30,0 Z m 0,58 C 14.561,58 2,45.439 2,30 2,14.561 14.561,2 30,2 45.439,2 58,14.561 58,30 58,45.439 45.439,58 30,58 Z"
     id="path3756" />
  <path
     style="fill:#018abd;fill-opacity:1"
     inkscape:connector-curvature="0"
     d="M 30,6 C 29.448,6 29,6.447 29,7 V 30 H 14 c -0.552,0 -1,0.447 -1,1 0,0.553 0.448,1 1,1 h 16 c 0.552,0 1,-0.447 1,-1 V 7 C 31,6.447 30.552,6 30,6 Z"
     id="path3758" />
</g>

</g>
      <g
         id="g3762">
</g>
      <g
         id="g3764">
</g>
      <g
         id="g3766">
</g>
      <g
         id="g3768">
</g>
      <g
         id="g3770">
</g>
      <g
         id="g3772">
</g>
      <g
         id="g3774">
</g>
      <g
         id="g3776">
</g>
      <g
         id="g3778">
</g>
      <g
         id="g3780">
</g>
      <g
         id="g3782">
</g>
      <g
         id="g3784">
</g>
      <g
         id="g3786">
</g>
      <g
         id="g3788">
</g>
      <g
         id="g3790">
</g>
    </g>
  </g>
</svg>
