<?xml version="1.0" encoding="UTF-8" standalone="no"?>
<!-- Generator: Adobe Illustrator 19.0.0, SVG Export Plug-In . SVG Version: 6.00 Build 0)  -->

<svg
   xmlns:dc="http://purl.org/dc/elements/1.1/"
   xmlns:cc="http://creativecommons.org/ns#"
   xmlns:rdf="http://www.w3.org/1999/02/22-rdf-syntax-ns#"
   xmlns:svg="http://www.w3.org/2000/svg"
   xmlns="http://www.w3.org/2000/svg"
   xmlns:sodipodi="http://sodipodi.sourceforge.net/DTD/sodipodi-0.dtd"
   xmlns:inkscape="http://www.inkscape.org/namespaces/inkscape"
   version="1.1"
   id="Capa_1"
   x="0px"
   y="0px"
   viewBox="0 0 54.757 54.757"
   style="enable-background:new 0 0 54.757 54.757;"
   xml:space="preserve"
   width="512px"
   height="512px"
   sodipodi:docname="placeholder.svg"
   inkscape:version="0.92.3 (2405546, 2018-03-11)"><metadata
   id="metadata4877"><rdf:RDF><cc:Work
       rdf:about=""><dc:format>image/svg+xml</dc:format><dc:type
         rdf:resource="http://purl.org/dc/dcmitype/StillImage" /></cc:Work></rdf:RDF></metadata><defs
   id="defs4875" /><sodipodi:namedview
   pagecolor="#ffffff"
   bordercolor="#666666"
   borderopacity="1"
   objecttolerance="10"
   gridtolerance="10"
   guidetolerance="10"
   inkscape:pageopacity="0"
   inkscape:pageshadow="2"
   inkscape:window-width="1280"
   inkscape:window-height="961"
   id="namedview4873"
   showgrid="false"
   inkscape:zoom="0.4609375"
   inkscape:cx="-96.542373"
   inkscape:cy="256"
   inkscape:window-x="-8"
   inkscape:window-y="-8"
   inkscape:window-maximized="1"
   inkscape:current-layer="g4840" />
<g
   id="g4840">
	<path
   d="M27.557,12c-3.859,0-7,3.141-7,7s3.141,7,7,7s7-3.141,7-7S31.416,12,27.557,12z M27.557,24c-2.757,0-5-2.243-5-5   s2.243-5,5-5s5,2.243,5,5S30.314,24,27.557,24z"
   fill="#006DF0"
   id="path4836"
   style="fill:#018abd;fill-opacity:1" />
	<path
   d="M40.94,5.617C37.318,1.995,32.502,0,27.38,0c-5.123,0-9.938,1.995-13.56,5.617c-6.703,6.702-7.536,19.312-1.804,26.952   L27.38,54.757L42.721,32.6C48.476,24.929,47.643,12.319,40.94,5.617z M41.099,31.431L27.38,51.243L13.639,31.4   C8.44,24.468,9.185,13.08,15.235,7.031C18.479,3.787,22.792,2,27.38,2s8.901,1.787,12.146,5.031   C45.576,13.08,46.321,24.468,41.099,31.431z"
   fill="#006DF0"
   id="path4838"
   style="fill:#018abd;fill-opacity:1" />
</g>
<g
   id="g4842">
</g>
<g
   id="g4844">
</g>
<g
   id="g4846">
</g>
<g
   id="g4848">
</g>
<g
   id="g4850">
</g>
<g
   id="g4852">
</g>
<g
   id="g4854">
</g>
<g
   id="g4856">
</g>
<g
   id="g4858">
</g>
<g
   id="g4860">
</g>
<g
   id="g4862">
</g>
<g
   id="g4864">
</g>
<g
   id="g4866">
</g>
<g
   id="g4868">
</g>
<g
   id="g4870">
</g>
</svg>