<?xml version="1.0" encoding="UTF-8" standalone="no"?>
<!-- Created with Inkscape (http://www.inkscape.org/) -->

<svg
   xmlns:dc="http://purl.org/dc/elements/1.1/"
   xmlns:cc="http://creativecommons.org/ns#"
   xmlns:rdf="http://www.w3.org/1999/02/22-rdf-syntax-ns#"
   xmlns:svg="http://www.w3.org/2000/svg"
   xmlns="http://www.w3.org/2000/svg"
   xmlns:sodipodi="http://sodipodi.sourceforge.net/DTD/sodipodi-0.dtd"
   xmlns:inkscape="http://www.inkscape.org/namespaces/inkscape"
   version="1.1"
   id="svg4627"
   xml:space="preserve"
   width="157.80331"
   height="92.041542"
   viewBox="0 0 157.8033 92.041542"
   sodipodi:docname="logo.svg"
   inkscape:version="0.92.3 (2405546, 2018-03-11)"><metadata
     id="metadata4633"><rdf:RDF><cc:Work
         rdf:about=""><dc:format>image/svg+xml</dc:format><dc:type
           rdf:resource="http://purl.org/dc/dcmitype/StillImage" /><dc:title></dc:title></cc:Work></rdf:RDF></metadata><defs
     id="defs4631"><clipPath
       clipPathUnits="userSpaceOnUse"
       id="clipPath4645"><path
         d="M 0,800 H 800 V 0 H 0 Z"
         id="path4643"
         inkscape:connector-curvature="0" /></clipPath><clipPath
       clipPathUnits="userSpaceOnUse"
       id="clipPath4841"><path
         d="M 0,800 H 800 V 0 H 0 Z"
         id="path4839"
         inkscape:connector-curvature="0" /></clipPath><clipPath
       clipPathUnits="userSpaceOnUse"
       id="clipPath5089"><path
         d="M 0,800 H 800 V 0 H 0 Z"
         id="path5087"
         inkscape:connector-curvature="0" /></clipPath><clipPath
       clipPathUnits="userSpaceOnUse"
       id="clipPath5233"><path
         d="M 0,800 H 800 V 0 H 0 Z"
         id="path5231"
         inkscape:connector-curvature="0" /></clipPath></defs><sodipodi:namedview
     pagecolor="#ffffff"
     bordercolor="#666666"
     borderopacity="1"
     objecttolerance="10"
     gridtolerance="10"
     guidetolerance="10"
     inkscape:pageopacity="0"
     inkscape:pageshadow="2"
     inkscape:window-width="1280"
     inkscape:window-height="961"
     id="namedview4629"
     showgrid="false"
     fit-margin-top="0"
     fit-margin-left="0"
     fit-margin-right="0"
     fit-margin-bottom="0"
     inkscape:zoom="1.2515789"
     inkscape:cx="67.815756"
     inkscape:cy="75.732203"
     inkscape:window-x="-8"
     inkscape:window-y="-8"
     inkscape:window-maximized="1"
     inkscape:current-layer="g4635" /><g
     id="g4635"
     inkscape:groupmode="layer"
     inkscape:label="constructionbuildings"
     transform="matrix(1.3333333,0,0,-1.3333333,1103.8419,1088.4098)"><path
   d="M 0,0 H 800 V 800 H 0 Z"
   style="fill:#f2f2f2;fill-opacity:1;fill-rule:nonzero;stroke:none"
   id="path4637"
   inkscape:connector-curvature="0" /><g
   id="g4639"><g
     id="g4641"
     clip-path="url(#clipPath4645)"><g
       id="g4647"
       transform="translate(278.1133,46.3321)"><path
         d="m 0,0 c -0.199,-0.439 -0.475,-0.775 -0.82,-0.988 -0.346,-0.219 -0.725,-0.337 -1.137,-0.337 -0.416,0 -0.791,0.121 -1.141,0.345 -0.343,0.23 -0.615,0.574 -0.816,1.022 -0.203,0.454 -0.301,0.997 -0.301,1.644 0,0.602 0.096,1.135 0.279,1.595 0.192,0.459 0.452,0.817 0.8,1.061 0.341,0.245 0.724,0.373 1.16,0.373 0.41,0 0.794,-0.128 1.147,-0.366 C -0.475,4.111 -0.199,3.768 0,3.313 0.211,2.858 0.311,2.307 0.311,1.686 0.311,1.014 0.211,0.447 0,0 M 1.56,10.01 C 1.205,10.01 0.932,9.88 0.731,9.635 0.539,9.381 0.445,9.017 0.445,8.529 V 5.035 C 0,5.52 -0.46,5.88 -0.924,6.114 c -0.469,0.23 -1.052,0.355 -1.73,0.355 -1.182,0 -2.135,-0.422 -2.851,-1.239 -0.724,-0.833 -1.089,-1.994 -1.089,-3.464 0,-0.71 0.088,-1.36 0.272,-1.963 0.183,-0.594 0.449,-1.128 0.8,-1.567 0.354,-0.443 0.772,-0.787 1.251,-1.025 0.488,-0.241 1.015,-0.364 1.587,-0.364 0.423,0 0.818,0.059 1.172,0.18 0.374,0.121 0.703,0.29 1.012,0.518 0.314,0.223 0.62,0.526 0.945,0.893 v -0.234 c 0,-0.436 0.107,-0.773 0.318,-1.008 0.211,-0.233 0.471,-0.349 0.797,-0.349 0.337,0 0.604,0.116 0.803,0.336 0.212,0.234 0.315,0.568 0.315,1.021 V 8.65 c 0,0.452 -0.09,0.788 -0.282,1.01 -0.197,0.23 -0.473,0.35 -0.836,0.35"
         style="fill:#2f3b66;fill-opacity:1;fill-rule:nonzero;stroke:none"
         id="path4649"
         inkscape:connector-curvature="0" /></g><g
       id="g4651"
       transform="translate(285.1543,48.7569)"><path
         d="M 0,0 C 0.072,0.801 0.301,1.403 0.686,1.809 1.064,2.221 1.55,2.425 2.136,2.425 2.759,2.425 3.261,2.221 3.633,1.814 4.01,1.42 4.234,0.811 4.291,0 Z m 6.067,-1.079 c 0.343,0.18 0.515,0.566 0.515,1.165 0,0.638 -0.165,1.273 -0.494,1.889 C 5.754,2.592 5.262,3.096 4.598,3.487 3.941,3.88 3.141,4.072 2.218,4.072 1.51,4.072 0.858,3.961 0.279,3.729 -0.316,3.506 -0.803,3.177 -1.201,2.747 -1.607,2.313 -1.904,1.808 -2.115,1.206 -2.322,0.604 -2.42,-0.044 -2.42,-0.738 c 0,-1.492 0.42,-2.666 1.268,-3.535 0.836,-0.867 2.021,-1.305 3.539,-1.305 0.668,0 1.258,0.09 1.771,0.257 0.508,0.181 0.932,0.402 1.281,0.662 0.331,0.257 0.584,0.538 0.754,0.826 0.168,0.285 0.249,0.538 0.249,0.754 0,0.236 -0.072,0.425 -0.229,0.558 -0.146,0.133 -0.343,0.198 -0.58,0.198 -0.227,0 -0.406,-0.053 -0.526,-0.156 C 4.811,-2.757 4.572,-2.973 4.382,-3.142 4.199,-3.295 3.999,-3.448 3.778,-3.599 3.559,-3.736 3.328,-3.841 3.102,-3.905 2.872,-3.973 2.605,-4.01 2.321,-4.01 1.902,-4.01 1.518,-3.899 1.162,-3.69 0.811,-3.483 0.539,-3.175 0.326,-2.762 0.109,-2.355 0.008,-1.882 0,-1.337 h 4.628 c 0.624,0 1.102,0.084 1.439,0.258"
         style="fill:#2f3b66;fill-opacity:1;fill-rule:nonzero;stroke:none"
         id="path4653"
         inkscape:connector-curvature="0" /></g><g
       id="g4655"
       transform="translate(299.9414,48.3155)"><path
         d="m 0,0 c -0.467,0.246 -1.07,0.46 -1.804,0.65 -0.622,0.144 -1.104,0.274 -1.46,0.376 -0.351,0.109 -0.627,0.235 -0.842,0.395 -0.199,0.157 -0.306,0.366 -0.306,0.614 0,0.272 0.142,0.499 0.426,0.676 0.277,0.19 0.639,0.28 1.059,0.28 0.425,0 0.752,-0.071 0.999,-0.211 0.246,-0.135 0.451,-0.32 0.63,-0.561 0.224,-0.274 0.409,-0.481 0.587,-0.617 0.172,-0.137 0.375,-0.209 0.622,-0.209 0.329,0 0.589,0.087 0.78,0.259 0.172,0.172 0.272,0.395 0.272,0.666 0,0.253 -0.094,0.501 -0.266,0.764 -0.166,0.269 -0.412,0.494 -0.746,0.71 -0.322,0.221 -0.731,0.385 -1.219,0.513 -0.492,0.132 -1.039,0.19 -1.659,0.19 -0.771,0 -1.439,-0.118 -1.999,-0.374 C -5.47,3.866 -5.895,3.53 -6.178,3.112 -6.459,2.686 -6.591,2.237 -6.591,1.767 c 0,-0.537 0.142,-0.98 0.448,-1.344 0.309,-0.369 0.715,-0.659 1.228,-0.88 0.513,-0.228 1.181,-0.439 1.988,-0.64 0.728,-0.174 1.245,-0.362 1.564,-0.541 0.31,-0.209 0.474,-0.501 0.474,-0.924 0,-0.266 -0.156,-0.507 -0.466,-0.716 -0.293,-0.216 -0.685,-0.319 -1.161,-0.319 -0.578,0 -1.045,0.103 -1.382,0.309 -0.34,0.219 -0.627,0.529 -0.864,0.954 -0.131,0.211 -0.261,0.388 -0.39,0.506 -0.127,0.116 -0.318,0.19 -0.57,0.19 -0.284,0 -0.52,-0.095 -0.705,-0.29 -0.182,-0.179 -0.272,-0.406 -0.272,-0.664 0,-0.394 0.14,-0.786 0.426,-1.181 0.291,-0.385 0.742,-0.712 1.347,-0.974 0.606,-0.256 1.336,-0.39 2.19,-0.39 0.886,0 1.647,0.123 2.269,0.364 0.621,0.239 1.088,0.596 1.404,1.063 0.324,0.462 0.483,1.028 0.483,1.673 0,0.432 -0.121,0.819 -0.365,1.163 C 0.818,-0.54 0.465,-0.248 0,0"
         style="fill:#2f3b66;fill-opacity:1;fill-rule:nonzero;stroke:none"
         id="path4657"
         inkscape:connector-curvature="0" /></g><g
       id="g4659"
       transform="translate(304.5352,52.8106)"><path
         d="m 0,0 c -0.346,0 -0.633,-0.116 -0.847,-0.351 -0.218,-0.234 -0.326,-0.585 -0.326,-1.062 v -6.785 c 0,-0.455 0.108,-0.81 0.326,-1.058 0.214,-0.253 0.501,-0.376 0.847,-0.376 0.345,0 0.635,0.123 0.859,0.364 0.223,0.239 0.336,0.601 0.336,1.07 v 6.852 c 0,0.427 -0.113,0.761 -0.336,0.995 C 0.635,-0.116 0.345,0 0,0"
         style="fill:#2f3b66;fill-opacity:1;fill-rule:nonzero;stroke:none"
         id="path4661"
         inkscape:connector-curvature="0" /></g><g
       id="g4663"
       transform="translate(304.5644,56.2334)"><path
         d="m 0,0 c -0.326,0 -0.603,-0.107 -0.839,-0.325 -0.241,-0.213 -0.363,-0.499 -0.363,-0.828 0,-0.369 0.122,-0.655 0.35,-0.864 0.236,-0.199 0.512,-0.299 0.852,-0.299 0.307,0 0.587,0.102 0.821,0.299 0.232,0.216 0.345,0.5 0.345,0.864 0,0.373 -0.121,0.659 -0.35,0.86 C 0.574,-0.098 0.295,0 0,0"
         style="fill:#2f3b66;fill-opacity:1;fill-rule:nonzero;stroke:none"
         id="path4665"
         inkscape:connector-curvature="0" /></g><g
       id="g4667"
       transform="translate(314.251,46.4336)"><path
         d="m 0,0 c -0.216,-0.427 -0.506,-0.754 -0.858,-0.96 -0.345,-0.202 -0.717,-0.315 -1.11,-0.315 -0.668,0 -1.204,0.25 -1.625,0.737 -0.424,0.492 -0.633,1.216 -0.633,2.183 0,0.947 0.209,1.673 0.614,2.189 0.408,0.52 0.951,0.779 1.63,0.779 0.684,0 1.253,-0.271 1.674,-0.804 C 0.116,3.272 0.331,2.516 0.331,1.541 0.331,0.937 0.218,0.423 0,0 M 1.505,6.377 C 1.175,6.377 0.926,6.27 0.724,6.038 0.522,5.817 0.417,5.5 0.417,5.084 V 4.765 c -0.422,0.558 -0.874,0.956 -1.371,1.213 -0.494,0.259 -1.074,0.389 -1.744,0.389 -0.56,0 -1.077,-0.106 -1.543,-0.304 C -4.713,5.864 -5.126,5.571 -5.482,5.175 -5.841,4.783 -6.114,4.298 -6.316,3.727 -6.509,3.154 -6.607,2.509 -6.607,1.799 c 0,-0.951 0.166,-1.799 0.486,-2.523 0.31,-0.733 0.768,-1.299 1.362,-1.703 0.596,-0.408 1.285,-0.61 2.074,-0.61 0.67,0 1.235,0.132 1.706,0.403 0.482,0.268 0.905,0.653 1.267,1.161 -0.016,-0.777 -0.031,-1.343 -0.053,-1.689 -0.024,-0.353 -0.1,-0.68 -0.24,-0.982 -0.135,-0.308 -0.375,-0.547 -0.709,-0.712 -0.338,-0.179 -0.812,-0.262 -1.433,-0.262 -0.296,0 -0.559,0.025 -0.795,0.083 -0.23,0.058 -0.434,0.135 -0.592,0.256 -0.164,0.106 -0.319,0.245 -0.452,0.405 -0.136,0.158 -0.27,0.315 -0.393,0.472 -0.26,0.308 -0.563,0.459 -0.914,0.459 -0.276,0 -0.518,-0.095 -0.708,-0.279 -0.195,-0.18 -0.292,-0.42 -0.292,-0.71 0,-0.374 0.172,-0.75 0.515,-1.109 0.345,-0.357 0.842,-0.656 1.484,-0.882 0.639,-0.229 1.373,-0.343 2.185,-0.343 0.887,0 1.637,0.088 2.237,0.272 0.596,0.179 1.084,0.452 1.451,0.821 0.369,0.371 0.639,0.837 0.814,1.406 0.165,0.562 0.245,1.248 0.245,2.036 v 6.875 c 0,0.563 -0.077,0.998 -0.22,1.285 -0.165,0.304 -0.46,0.448 -0.913,0.448"
         style="fill:#2f3b66;fill-opacity:1;fill-rule:nonzero;stroke:none"
         id="path4669"
         inkscape:connector-curvature="0" /></g><g
       id="g4671"
       transform="translate(327.2852,51.2559)"><path
         d="M 0,0 C -0.242,0.501 -0.616,0.879 -1.098,1.148 -1.591,1.42 -2.151,1.555 -2.772,1.555 -3.42,1.555 -3.989,1.427 -4.483,1.167 -4.98,0.912 -5.435,0.508 -5.846,-0.039 v 0.287 c 0,0.281 -0.051,0.525 -0.152,0.722 -0.106,0.195 -0.242,0.341 -0.406,0.441 -0.164,0.097 -0.362,0.144 -0.563,0.144 -0.344,0 -0.615,-0.107 -0.81,-0.325 C -7.97,1.007 -8.065,0.664 -8.065,0.209 v -6.853 c 0,-0.455 0.108,-0.809 0.324,-1.057 0.222,-0.253 0.508,-0.376 0.844,-0.376 0.356,0 0.639,0.123 0.868,0.364 0.214,0.238 0.331,0.596 0.331,1.069 v 2.98 c 0,0.958 0.051,1.622 0.163,1.977 0.172,0.439 0.43,0.782 0.765,1.039 0.358,0.249 0.737,0.37 1.162,0.37 0.647,0 1.082,-0.202 1.292,-0.616 0.216,-0.417 0.325,-1.013 0.325,-1.791 v -3.959 c 0,-0.455 0.112,-0.809 0.334,-1.057 0.217,-0.253 0.501,-0.376 0.86,-0.376 0.35,0 0.623,0.123 0.843,0.364 0.218,0.238 0.323,0.601 0.323,1.069 v 4.414 c 0,0.52 -0.017,0.952 -0.065,1.291 C 0.258,-0.601 0.155,-0.295 0,0"
         style="fill:#2f3b66;fill-opacity:1;fill-rule:nonzero;stroke:none"
         id="path4673"
         inkscape:connector-curvature="0" /></g><g
       id="g4675"
       transform="translate(331.9932,48.7569)"><path
         d="M 0,0 C 0.093,0.801 0.315,1.403 0.69,1.809 1.069,2.221 1.552,2.425 2.153,2.425 2.761,2.425 3.265,2.221 3.644,1.814 4.023,1.42 4.239,0.811 4.298,0 Z m 6.078,-1.079 c 0.333,0.18 0.507,0.566 0.507,1.165 0,0.638 -0.161,1.273 -0.495,1.889 C 5.759,2.592 5.263,3.096 4.599,3.487 3.942,3.88 3.148,4.072 2.228,4.072 1.509,4.072 0.862,3.961 0.282,3.729 -0.304,3.506 -0.798,3.177 -1.195,2.747 -1.597,2.313 -1.897,1.808 -2.109,1.206 c -0.203,-0.602 -0.314,-1.25 -0.314,-1.944 0,-1.492 0.43,-2.666 1.274,-3.535 0.845,-0.867 2.026,-1.305 3.548,-1.305 0.661,0 1.25,0.09 1.764,0.257 0.514,0.181 0.936,0.402 1.278,0.662 0.33,0.257 0.585,0.538 0.757,0.826 0.164,0.285 0.246,0.538 0.246,0.754 0,0.236 -0.068,0.425 -0.217,0.558 -0.162,0.133 -0.347,0.198 -0.593,0.198 -0.225,0 -0.402,-0.053 -0.528,-0.156 C 4.815,-2.757 4.573,-2.973 4.393,-3.142 4.209,-3.295 4.005,-3.448 3.783,-3.599 3.562,-3.736 3.335,-3.841 3.105,-3.905 2.869,-3.973 2.609,-4.01 2.325,-4.01 1.907,-4.01 1.519,-3.899 1.165,-3.69 0.82,-3.483 0.534,-3.175 0.327,-2.762 0.117,-2.355 0.009,-1.882 0,-1.337 h 4.632 c 0.621,0 1.101,0.084 1.446,0.258"
         style="fill:#2f3b66;fill-opacity:1;fill-rule:nonzero;stroke:none"
         id="path4677"
         inkscape:connector-curvature="0" /></g><g
       id="g4679"
       transform="translate(346.6328,46.3321)"><path
         d="m 0,0 c -0.209,-0.439 -0.487,-0.775 -0.826,-0.988 -0.346,-0.219 -0.727,-0.337 -1.148,-0.337 -0.405,0 -0.786,0.121 -1.131,0.345 -0.35,0.23 -0.622,0.574 -0.815,1.022 -0.212,0.454 -0.301,0.997 -0.301,1.644 0,0.602 0.089,1.135 0.278,1.595 0.186,0.459 0.455,0.817 0.796,1.061 0.338,0.245 0.724,0.373 1.162,0.373 0.419,0 0.795,-0.128 1.141,-0.366 C -0.487,4.111 -0.209,3.768 0,3.313 0.201,2.858 0.303,2.307 0.303,1.686 0.303,1.014 0.201,0.447 0,0 M 1.556,10.01 C 1.192,10.01 0.916,9.88 0.734,9.635 0.529,9.381 0.432,9.017 0.432,8.529 V 5.035 C -0.014,5.52 -0.469,5.88 -0.939,6.114 -1.406,6.344 -1.98,6.469 -2.664,6.469 -3.848,6.469 -4.799,6.047 -5.521,5.23 -6.244,4.397 -6.604,3.236 -6.604,1.766 c 0,-0.71 0.09,-1.36 0.272,-1.963 0.183,-0.594 0.463,-1.128 0.803,-1.567 0.345,-0.443 0.775,-0.787 1.257,-1.025 0.478,-0.241 1.014,-0.364 1.567,-0.364 0.433,0 0.828,0.059 1.183,0.18 0.374,0.121 0.71,0.29 1.014,0.518 0.312,0.223 0.626,0.526 0.94,0.893 v -0.234 c 0,-0.436 0.107,-0.773 0.321,-1.008 0.202,-0.233 0.479,-0.349 0.803,-0.349 0.326,0 0.59,0.116 0.796,0.336 0.212,0.234 0.321,0.568 0.321,1.021 V 8.65 c 0,0.452 -0.091,0.788 -0.29,1.01 -0.195,0.23 -0.467,0.35 -0.827,0.35"
         style="fill:#2f3b66;fill-opacity:1;fill-rule:nonzero;stroke:none"
         id="path4681"
         inkscape:connector-curvature="0" /></g><g
       id="g4683"
       transform="translate(362.3115,45.7979)"><path
         d="m 0,0 c -0.44,-0.524 -0.951,-0.791 -1.546,-0.791 -0.697,0 -1.257,0.265 -1.693,0.764 -0.436,0.507 -0.648,1.224 -0.648,2.176 0,0.64 0.098,1.193 0.312,1.655 0.197,0.47 0.474,0.828 0.818,1.072 0.362,0.245 0.76,0.373 1.211,0.373 0.442,0 0.824,-0.128 1.153,-0.373 C -0.069,4.632 0.195,4.284 0.374,3.831 0.556,3.384 0.638,2.838 0.638,2.221 0.638,1.253 0.426,0.509 0,0 M 1.151,6.441 C 0.56,6.815 -0.134,7.003 -0.919,7.003 -1.597,7.003 -2.174,6.878 -2.638,6.625 -3.101,6.384 -3.555,6.028 -4,5.569 v 3.616 c 0,0.438 -0.101,0.772 -0.298,1.001 -0.194,0.238 -0.474,0.358 -0.84,0.358 -0.345,0 -0.609,-0.13 -0.814,-0.375 C -6.142,9.927 -6.237,9.565 -6.237,9.085 V -1.262 c 0,-0.453 0.102,-0.78 0.299,-1.021 0.195,-0.22 0.468,-0.336 0.8,-0.336 0.332,0 0.606,0.116 0.823,0.336 0.213,0.241 0.315,0.568 0.315,1.021 v 0.235 c 0.26,-0.297 0.472,-0.537 0.626,-0.683 0.16,-0.142 0.351,-0.288 0.58,-0.432 0.223,-0.146 0.499,-0.259 0.822,-0.343 0.325,-0.088 0.661,-0.134 1.028,-0.134 0.59,0 1.139,0.123 1.629,0.364 0.502,0.238 0.919,0.582 1.264,1.019 0.345,0.431 0.613,0.958 0.795,1.559 C 2.929,0.924 3.016,1.578 3.016,2.3 3.016,3.265 2.855,4.112 2.53,4.815 2.204,5.527 1.745,6.065 1.151,6.441"
         style="fill:#2f3b66;fill-opacity:1;fill-rule:nonzero;stroke:none"
         id="path4685"
         inkscape:connector-curvature="0" /></g><g
       id="g4687"
       transform="translate(374.3984,52.6709)"><path
         d="m 0,0 c -0.172,0.101 -0.342,0.14 -0.518,0.14 -0.254,0 -0.44,-0.039 -0.578,-0.128 -0.133,-0.083 -0.267,-0.26 -0.387,-0.501 -0.122,-0.248 -0.26,-0.597 -0.408,-1.035 l -1.9,-5.423 -2.008,5.839 c -0.135,0.403 -0.283,0.707 -0.457,0.923 -0.172,0.218 -0.431,0.325 -0.774,0.325 -0.2,0 -0.381,-0.054 -0.572,-0.149 -0.175,-0.114 -0.318,-0.241 -0.425,-0.418 -0.098,-0.169 -0.157,-0.361 -0.157,-0.563 0,-0.195 0.09,-0.499 0.273,-0.919 L -5,-9.256 -5.211,-9.782 c -0.164,-0.388 -0.316,-0.692 -0.432,-0.887 -0.121,-0.197 -0.267,-0.337 -0.418,-0.415 -0.159,-0.079 -0.373,-0.123 -0.647,-0.123 -0.106,0 -0.239,0.016 -0.39,0.051 -0.123,0.032 -0.253,0.054 -0.373,0.054 -0.32,0 -0.571,-0.08 -0.725,-0.221 -0.177,-0.147 -0.255,-0.356 -0.255,-0.629 0,-0.402 0.178,-0.678 0.514,-0.828 0.349,-0.147 0.876,-0.223 1.569,-0.223 0.702,0 1.277,0.107 1.695,0.322 0.425,0.23 0.761,0.534 1.015,0.94 0.252,0.394 0.508,0.959 0.785,1.669 l 3.081,8.091 c 0.071,0.207 0.141,0.408 0.189,0.617 0.057,0.197 0.091,0.359 0.115,0.467 0,0.18 -0.045,0.345 -0.141,0.512 C 0.288,-0.225 0.158,-0.101 0,0"
         style="fill:#2f3b66;fill-opacity:1;fill-rule:nonzero;stroke:none"
         id="path4689"
         inkscape:connector-curvature="0" /></g><g
       id="g4691"
       transform="translate(416.6621,56.3418)"><path
         d="m 0,0 c -0.785,0 -1.399,-0.104 -1.842,-0.301 -0.455,-0.202 -0.777,-0.517 -0.953,-0.961 -0.19,-0.431 -0.29,-1.025 -0.29,-1.763 v -0.71 h -0.562 c -0.793,0 -1.185,-0.29 -1.185,-0.85 0,-0.255 0.095,-0.464 0.283,-0.622 0.192,-0.162 0.463,-0.238 0.818,-0.238 h 0.646 v -6.285 c 0,-0.457 0.116,-0.812 0.347,-1.057 0.216,-0.253 0.488,-0.376 0.827,-0.376 0.352,0 0.638,0.123 0.856,0.376 0.233,0.245 0.344,0.6 0.344,1.057 v 6.285 h 0.575 c 0.429,0 0.757,0.05 1,0.15 0.235,0.113 0.361,0.351 0.361,0.742 0,0.543 -0.452,0.818 -1.361,0.818 h -0.575 v 0.563 c 0,0.472 0.061,0.824 0.174,1.079 0.133,0.253 0.401,0.378 0.83,0.378 0.16,0 0.346,-0.02 0.571,-0.044 0.226,-0.041 0.39,-0.062 0.481,-0.062 0.196,0 0.362,0.077 0.512,0.234 0.148,0.158 0.223,0.349 0.223,0.565 C 2.08,-0.346 1.385,0 0,0"
         style="fill:#2f3b66;fill-opacity:1;fill-rule:nonzero;stroke:none"
         id="path4693"
         inkscape:connector-curvature="0" /></g><g
       id="g4695"
       transform="translate(424.9141,52.4463)"><path
         d="M 0,0 C -0.472,0.246 -0.957,0.364 -1.449,0.364 -1.951,0.364 -2.344,0.246 -2.641,0 -2.941,-0.258 -3.23,-0.627 -3.51,-1.109 -3.541,-0.627 -3.631,-0.258 -3.803,0 -3.979,0.246 -4.258,0.364 -4.65,0.364 c -0.776,0 -1.155,-0.526 -1.155,-1.593 v -6.605 c 0,-0.469 0.108,-0.831 0.325,-1.069 0.221,-0.242 0.501,-0.365 0.847,-0.365 0.349,0 0.633,0.123 0.863,0.365 0.223,0.238 0.34,0.595 0.34,1.069 v 1.986 c 0,0.713 0.018,1.312 0.066,1.813 0.044,0.492 0.134,0.919 0.249,1.278 0.123,0.362 0.294,0.634 0.506,0.817 0.222,0.174 0.507,0.269 0.854,0.269 0.255,0 0.552,-0.054 0.883,-0.162 0.329,-0.104 0.538,-0.163 0.626,-0.163 0.232,0 0.443,0.103 0.646,0.281 0.202,0.188 0.303,0.429 0.303,0.712 C 0.703,-0.583 0.465,-0.258 0,0"
         style="fill:#2f3b66;fill-opacity:1;fill-rule:nonzero;stroke:none"
         id="path4697"
         inkscape:connector-curvature="0" /></g><g
       id="g4699"
       transform="translate(428.4414,48.7569)"><path
         d="M 0,0 C 0.088,0.801 0.314,1.403 0.693,1.809 1.072,2.221 1.555,2.425 2.14,2.425 2.766,2.425 3.263,2.221 3.641,1.814 4.021,1.42 4.232,0.811 4.297,0 Z M 6.075,-1.079 C 6.421,-0.899 6.59,-0.513 6.59,0.086 6.59,0.724 6.421,1.359 6.094,1.975 5.77,2.592 5.264,3.096 4.609,3.487 3.945,3.88 3.151,4.072 2.228,4.072 1.512,4.072 0.867,3.961 0.282,3.729 -0.307,3.506 -0.801,3.177 -1.199,2.747 -1.594,2.313 -1.9,1.808 -2.1,1.206 c -0.211,-0.602 -0.324,-1.25 -0.324,-1.944 0,-1.492 0.432,-2.666 1.264,-3.535 0.853,-0.867 2.033,-1.305 3.555,-1.305 0.669,0 1.265,0.09 1.765,0.257 0.514,0.181 0.941,0.402 1.281,0.662 0.337,0.257 0.582,0.538 0.75,0.826 0.174,0.285 0.256,0.538 0.256,0.754 0,0.236 -0.069,0.425 -0.226,0.558 C 6.07,-2.388 5.873,-2.323 5.637,-2.323 5.412,-2.323 5.23,-2.376 5.113,-2.479 4.82,-2.757 4.584,-2.973 4.397,-3.142 4.207,-3.295 4.01,-3.448 3.78,-3.599 3.566,-3.736 3.344,-3.841 3.103,-3.905 2.863,-3.973 2.608,-4.01 2.323,-4.01 1.91,-4.01 1.52,-3.899 1.165,-3.69 0.811,-3.483 0.531,-3.175 0.328,-2.762 0.123,-2.355 0.01,-1.882 0,-1.337 h 4.629 c 0.629,0 1.099,0.084 1.446,0.258"
         style="fill:#2f3b66;fill-opacity:1;fill-rule:nonzero;stroke:none"
         id="path4701"
         inkscape:connector-curvature="0" /></g><g
       id="g4703"
       transform="translate(439.0068,48.7569)"><path
         d="M 0,0 C 0.074,0.801 0.315,1.403 0.683,1.809 1.069,2.221 1.55,2.425 2.14,2.425 2.761,2.425 3.259,2.221 3.636,1.814 4.013,1.42 4.232,0.811 4.294,0 Z m 6.067,-1.079 c 0.34,0.18 0.514,0.566 0.514,1.165 0,0.638 -0.165,1.273 -0.492,1.889 C 5.759,2.592 5.264,3.096 4.599,3.487 3.933,3.88 3.151,4.072 2.214,4.072 1.512,4.072 0.858,3.961 0.271,3.729 -0.313,3.506 -0.796,3.177 -1.202,2.747 -1.601,2.313 -1.898,1.808 -2.108,1.206 c -0.216,-0.602 -0.305,-1.25 -0.305,-1.944 0,-1.492 0.408,-2.666 1.252,-3.535 0.848,-0.867 2.033,-1.305 3.547,-1.305 0.666,0 1.26,0.09 1.774,0.257 0.503,0.181 0.932,0.402 1.27,0.662 0.342,0.257 0.589,0.538 0.765,0.826 0.159,0.285 0.246,0.538 0.246,0.754 0,0.236 -0.074,0.425 -0.215,0.558 -0.159,0.133 -0.359,0.198 -0.596,0.198 -0.227,0 -0.397,-0.053 -0.518,-0.156 C 4.81,-2.757 4.569,-2.973 4.389,-3.142 4.206,-3.295 3.998,-3.448 3.78,-3.599 3.56,-3.736 3.335,-3.841 3.098,-3.905 2.869,-3.973 2.597,-4.01 2.321,-4.01 1.899,-4.01 1.518,-3.899 1.162,-3.69 0.815,-3.483 0.531,-3.175 0.327,-2.762 0.107,-2.355 0.005,-1.882 0,-1.337 h 4.629 c 0.622,0 1.099,0.084 1.438,0.258"
         style="fill:#2f3b66;fill-opacity:1;fill-rule:nonzero;stroke:none"
         id="path4705"
         inkscape:connector-curvature="0" /></g><g
       id="g4707"
       transform="translate(453.873,46.3809)"><path
         d="m 0,0 c -0.206,-0.455 -0.471,-0.799 -0.803,-1.028 -0.337,-0.225 -0.707,-0.346 -1.094,-0.346 -0.658,0 -1.209,0.267 -1.661,0.796 -0.442,0.516 -0.665,1.248 -0.665,2.197 0,1.003 0.223,1.752 0.678,2.268 0.439,0.519 0.996,0.779 1.648,0.779 0.417,0 0.782,-0.128 1.116,-0.366 C -0.437,4.062 -0.17,3.722 0.021,3.267 0.209,2.826 0.303,2.288 0.303,1.666 0.303,1.007 0.2,0.459 0,0 M 0.697,5.85 C 0.092,6.232 -0.592,6.42 -1.314,6.42 -1.926,6.42 -2.473,6.29 -2.952,6.03 -3.424,5.773 -3.887,5.376 -4.33,4.817 v 0.288 c 0,0.424 -0.108,0.758 -0.316,0.986 C -4.867,6.323 -5.139,6.43 -5.471,6.43 -5.818,6.43 -6.078,6.323 -6.283,6.105 -6.475,5.882 -6.573,5.539 -6.573,5.084 V -5.133 c 0,-0.512 0.071,-0.91 0.215,-1.177 0.151,-0.269 0.444,-0.403 0.887,-0.403 0.753,0 1.141,0.513 1.141,1.567 v 3.556 c 0.408,-0.533 0.85,-0.924 1.301,-1.204 0.466,-0.27 1.037,-0.408 1.715,-0.408 0.564,0 1.085,0.116 1.574,0.336 0.486,0.218 0.906,0.541 1.263,0.959 0.362,0.41 0.649,0.923 0.854,1.533 0.199,0.615 0.309,1.278 0.309,2.012 0,0.993 -0.182,1.842 -0.532,2.566 C 1.792,4.926 1.312,5.472 0.697,5.85"
         style="fill:#2f3b66;fill-opacity:1;fill-rule:nonzero;stroke:none"
         id="path4709"
         inkscape:connector-curvature="0" /></g><g
       id="g4711"
       transform="translate(459.6328,52.8106)"><path
         d="m 0,0 c -0.355,0 -0.635,-0.116 -0.855,-0.351 -0.211,-0.234 -0.319,-0.585 -0.319,-1.062 v -6.785 c 0,-0.455 0.108,-0.81 0.319,-1.058 0.22,-0.253 0.5,-0.376 0.855,-0.376 0.344,0 0.619,0.123 0.85,0.364 0.222,0.239 0.34,0.601 0.34,1.07 v 6.852 c 0,0.427 -0.118,0.761 -0.34,0.995 C 0.619,-0.116 0.344,0 0,0"
         style="fill:#2f3b66;fill-opacity:1;fill-rule:nonzero;stroke:none"
         id="path4713"
         inkscape:connector-curvature="0" /></g><g
       id="g4715"
       transform="translate(459.6582,56.2334)"><path
         d="m 0,0 c -0.317,0 -0.607,-0.107 -0.838,-0.325 -0.24,-0.213 -0.361,-0.499 -0.361,-0.828 0,-0.369 0.121,-0.655 0.344,-0.864 0.238,-0.199 0.521,-0.299 0.855,-0.299 0.311,0 0.59,0.102 0.824,0.299 0.223,0.216 0.341,0.5 0.341,0.864 0,0.373 -0.12,0.659 -0.349,0.86 C 0.576,-0.098 0.307,0 0,0"
         style="fill:#2f3b66;fill-opacity:1;fill-rule:nonzero;stroke:none"
         id="path4717"
         inkscape:connector-curvature="0" /></g><g
       id="g4719"
       transform="translate(471.0918,45.462)"><path
         d="m 0,0 -2.434,3.821 1.262,1.16 c 0.645,0.577 0.963,1.036 0.963,1.376 0,0.286 -0.096,0.528 -0.297,0.713 -0.197,0.186 -0.44,0.279 -0.738,0.279 -0.246,0 -0.457,-0.058 -0.631,-0.191 C -2.052,7.03 -2.306,6.801 -2.638,6.446 L -5.293,3.657 v 5.742 c 0,0.488 -0.108,0.852 -0.322,1.106 -0.215,0.245 -0.506,0.375 -0.867,0.375 -0.377,0 -0.665,-0.149 -0.871,-0.42 C -7.554,10.188 -7.654,9.782 -7.654,9.259 V -0.85 c 0,-0.468 0.111,-0.831 0.314,-1.069 0.209,-0.241 0.492,-0.364 0.858,-0.364 0.302,0 0.587,0.123 0.824,0.376 0.246,0.245 0.365,0.589 0.365,1.057 v 1.875 l 1.287,1.218 2.084,-3.44 c 0.262,-0.41 0.479,-0.697 0.639,-0.85 0.15,-0.16 0.379,-0.236 0.663,-0.236 0.334,0 0.605,0.106 0.804,0.324 0.211,0.223 0.322,0.516 0.322,0.893 0,0.135 -0.043,0.274 -0.119,0.42 C 0.303,-0.494 0.174,-0.278 0,0"
         style="fill:#2f3b66;fill-opacity:1;fill-rule:nonzero;stroke:none"
         id="path4721"
         inkscape:connector-curvature="0" /></g><g
       id="g4723"
       transform="translate(475.0068,45.7979)"><path
         d="m 0,0 c -0.372,0 -0.677,-0.132 -0.929,-0.39 -0.246,-0.255 -0.365,-0.556 -0.365,-0.905 0,-0.42 0.129,-0.74 0.389,-0.975 0.259,-0.233 0.571,-0.349 0.931,-0.349 0.34,0 0.637,0.116 0.906,0.349 0.251,0.235 0.383,0.555 0.383,0.975 0,0.362 -0.132,0.655 -0.383,0.919 C 0.663,-0.132 0.363,0 0,0"
         style="fill:#2f3b66;fill-opacity:1;fill-rule:nonzero;stroke:none"
         id="path4725"
         inkscape:connector-curvature="0" /></g><g
       id="g4727"
       transform="translate(486.5039,47.1485)"><path
         d="m 0,0 c -0.246,0 -0.443,-0.076 -0.619,-0.229 -0.163,-0.147 -0.317,-0.36 -0.463,-0.618 -0.261,-0.46 -0.564,-0.789 -0.898,-1.011 -0.333,-0.223 -0.743,-0.33 -1.217,-0.33 -0.354,0 -0.681,0.067 -0.971,0.198 -0.299,0.145 -0.557,0.347 -0.756,0.602 -0.207,0.268 -0.371,0.587 -0.479,0.961 -0.111,0.374 -0.166,0.776 -0.166,1.226 0,0.944 0.223,1.698 0.645,2.243 0.429,0.541 0.984,0.813 1.693,0.813 0.481,0 0.887,-0.103 1.206,-0.323 0.314,-0.23 0.614,-0.552 0.904,-0.991 0.164,-0.225 0.305,-0.39 0.435,-0.482 0.129,-0.115 0.289,-0.159 0.489,-0.159 0.3,0 0.558,0.103 0.763,0.293 0.214,0.198 0.323,0.444 0.323,0.722 0,0.278 -0.091,0.58 -0.28,0.898 C 0.418,4.133 0.152,4.437 -0.214,4.727 -0.562,5.006 -1,5.23 -1.515,5.411 c -0.51,0.186 -1.071,0.27 -1.682,0.27 -0.993,0 -1.836,-0.209 -2.551,-0.616 -0.707,-0.403 -1.254,-0.978 -1.629,-1.723 -0.379,-0.75 -0.57,-1.606 -0.57,-2.58 0,-1.442 0.42,-2.581 1.243,-3.433 0.806,-0.851 1.954,-1.278 3.415,-1.278 0.697,0 1.309,0.095 1.859,0.271 0.555,0.186 1.006,0.432 1.373,0.739 0.355,0.308 0.623,0.63 0.806,0.956 0.169,0.347 0.269,0.656 0.269,0.948 0,0.256 -0.104,0.476 -0.297,0.711 C 0.541,-0.108 0.298,0 0,0"
         style="fill:#2f3b66;fill-opacity:1;fill-rule:nonzero;stroke:none"
         id="path4729"
         inkscape:connector-curvature="0" /></g><g
       id="g4731"
       transform="translate(495.4394,45.7539)"><path
         d="m 0,0 c -0.435,-0.538 -1.007,-0.812 -1.725,-0.812 -0.472,0 -0.882,0.125 -1.226,0.375 -0.359,0.24 -0.633,0.597 -0.816,1.057 -0.187,0.466 -0.282,1.002 -0.282,1.626 0,0.62 0.095,1.17 0.285,1.639 0.196,0.47 0.462,0.811 0.813,1.064 0.36,0.238 0.766,0.358 1.226,0.358 0.718,0 1.29,-0.274 1.725,-0.808 C 0.413,3.961 0.623,3.212 0.623,2.246 0.623,1.29 0.413,0.543 0,0 M 1.73,5.725 C 1.318,6.154 0.812,6.477 0.23,6.713 -0.355,6.941 -1.007,7.057 -1.725,7.057 -2.428,7.057 -3.072,6.95 -3.65,6.718 -4.238,6.49 -4.738,6.166 -5.154,5.738 -5.557,5.316 -5.879,4.812 -6.089,4.214 -6.318,3.615 -6.423,2.959 -6.423,2.246 c 0,-0.715 0.105,-1.366 0.321,-1.953 0.221,-0.585 0.54,-1.091 0.957,-1.522 0.422,-0.442 0.92,-0.762 1.495,-0.996 0.559,-0.234 1.211,-0.35 1.925,-0.35 0.726,0 1.37,0.116 1.955,0.336 0.582,0.241 1.071,0.568 1.495,0.998 0.412,0.425 0.73,0.934 0.949,1.534 0.223,0.594 0.331,1.246 0.331,1.953 0,0.713 -0.108,1.356 -0.323,1.945 C 2.462,4.78 2.145,5.293 1.73,5.725"
         style="fill:#2f3b66;fill-opacity:1;fill-rule:nonzero;stroke:none"
         id="path4733"
         inkscape:connector-curvature="0" /></g><g
       id="g4735"
       transform="translate(513.4258,51.3184)"><path
         d="m 0,0 c -0.228,0.471 -0.574,0.843 -1.04,1.102 -0.478,0.25 -1.035,0.38 -1.677,0.38 -0.562,0 -1.066,-0.125 -1.519,-0.354 -0.459,-0.234 -0.891,-0.594 -1.287,-1.079 -0.27,0.478 -0.629,0.833 -1.053,1.079 -0.43,0.229 -0.944,0.354 -1.539,0.354 -0.572,0 -1.093,-0.125 -1.565,-0.352 -0.465,-0.234 -0.904,-0.596 -1.322,-1.081 v 0.218 c 0,0.385 -0.106,0.684 -0.322,0.9 -0.21,0.219 -0.487,0.325 -0.817,0.325 -0.325,0 -0.601,-0.116 -0.81,-0.344 -0.206,-0.236 -0.299,-0.575 -0.299,-1.023 v -6.769 c 0,-0.491 0.107,-0.863 0.335,-1.116 0.231,-0.257 0.532,-0.38 0.883,-0.38 0.368,0 0.661,0.123 0.887,0.38 0.219,0.253 0.334,0.625 0.334,1.116 v 3.208 c 0,0.986 0.12,1.756 0.362,2.286 0.248,0.535 0.756,0.802 1.538,0.802 0.381,0 0.667,-0.114 0.847,-0.325 0.175,-0.202 0.288,-0.477 0.328,-0.809 0.037,-0.337 0.066,-0.788 0.066,-1.381 v -3.781 c 0,-0.501 0.104,-0.872 0.332,-1.12 0.222,-0.253 0.514,-0.376 0.87,-0.376 0.368,0 0.675,0.123 0.904,0.376 0.214,0.248 0.332,0.619 0.332,1.12 v 3.152 c 0,1.016 0.087,1.715 0.254,2.116 0.156,0.311 0.378,0.564 0.657,0.747 0.284,0.182 0.577,0.281 0.895,0.281 0.38,0 0.676,-0.114 0.865,-0.315 0.19,-0.207 0.306,-0.465 0.349,-0.776 0.038,-0.311 0.067,-0.716 0.067,-1.222 v -3.983 c 0,-0.491 0.124,-0.863 0.341,-1.116 0.234,-0.257 0.521,-0.38 0.88,-0.38 0.375,0 0.666,0.123 0.895,0.376 0.226,0.248 0.332,0.619 0.332,1.12 v 4.625 C 0.303,-1.095 0.211,-0.422 0,0"
         style="fill:#2f3b66;fill-opacity:1;fill-rule:nonzero;stroke:none"
         id="path4737"
         inkscape:connector-curvature="0" /></g><g
       id="g4739"
       transform="translate(390.791,57.0176)"><path
         d="M 0,0 C 1.069,0.469 2.219,0.636 3.373,0.654 4.393,0.666 5.42,0.575 6.416,0.48 6.49,0.756 6.557,1.042 6.631,1.318 5.668,1.754 4.617,1.919 3.563,1.902 3.513,2.056 3.461,2.211 3.41,2.357 4.205,2.432 4.744,3.381 4.344,4.089 4.174,4.485 3.784,4.713 3.373,4.747 2.961,4.782 2.535,4.62 2.295,4.256 1.795,3.608 2.192,2.587 2.961,2.383 3.007,2.226 3.055,2.056 3.106,1.891 1.91,1.819 0.694,1.555 -0.303,0.863 -0.199,0.578 -0.1,0.285 0,0"
         style="fill:#2f3b66;fill-opacity:1;fill-rule:nonzero;stroke:none"
         id="path4741"
         inkscape:connector-curvature="0" /></g><g
       id="g4743"
       transform="translate(406.3574,55.6602)"><path
         d="m 0,0 c -0.322,-0.158 -0.38,-0.543 -0.355,-0.868 -0.364,-0.343 -0.19,-0.863 -0.227,-1.304 -0.083,-0.234 -0.373,-0.267 -0.57,-0.355 -0.282,0.423 -0.584,0.84 -0.953,1.181 v 0.021 c -0.407,0.381 -0.852,0.723 -1.315,1.028 -0.369,-0.401 -0.767,-0.787 -1.123,-1.209 0.711,-0.78 1.369,-1.622 1.949,-2.504 0.403,-0.677 0.729,-1.389 0.997,-2.121 0.609,0.307 1.199,0.631 1.802,0.945 -0.328,0.733 -0.682,1.446 -1.068,2.146 0.267,0.144 0.63,0.283 0.662,0.634 0.036,0.373 -0.059,0.798 0.178,1.135 0.466,-0.307 1.17,0.037 1.177,0.607 C 1.217,-0.086 0.482,0.332 0,0"
         style="fill:#2f3b66;fill-opacity:1;fill-rule:nonzero;stroke:none"
         id="path4745"
         inkscape:connector-curvature="0" /></g><g
       id="g4747"
       transform="translate(401.6445,50.8008)"><path
         d="m 0,0 c -0.14,-0.975 -1.068,-1.798 -2.066,-1.738 -0.582,-0.046 -1.137,0.225 -1.523,0.633 -0.286,0.356 -0.524,0.752 -0.552,1.209 -0.138,0.992 0.561,2.019 1.533,2.253 0.425,0.122 0.864,0.052 1.283,-0.039 C -0.405,1.991 0.2,0.956 0,0 m -8.768,-2.049 c -0.39,-0.573 -0.955,-1.02 -1.602,-1.266 -1.222,-0.451 -2.7,-0.142 -3.573,0.821 -0.606,0.68 -0.978,1.58 -0.909,2.494 0.046,1.145 0.754,2.205 1.756,2.738 0.76,0.418 1.69,0.49 2.516,0.258 0.35,-0.088 0.678,-0.258 0.97,-0.455 0.61,-0.434 1.079,-1.072 1.276,-1.808 0.297,-0.934 0.106,-1.979 -0.434,-2.782 m 7.456,6.131 c -1.336,1.184 -3.051,1.97 -4.848,1.958 -0.44,0 -0.878,-0.012 -1.32,-0.03 -1.819,-0.109 -3.631,-0.488 -5.314,-1.22 -1.964,-0.859 -3.676,-2.395 -4.54,-4.384 -0.832,-1.784 -0.818,-3.849 -0.449,-5.745 2.09,-0.524 4.205,-0.988 6.351,-1.093 1.321,-0.04 2.633,-0.079 3.952,-0.016 0.8,0.02 1.605,0.081 2.402,0.197 2.895,0.381 5.725,1.3 8.251,2.775 0,0 -0.351,1.903 -1.706,3.982 -0.783,1.293 -1.631,2.58 -2.779,3.576"
         style="fill:#2f3b66;fill-opacity:1;fill-rule:nonzero;stroke:none"
         id="path4749"
         inkscape:connector-curvature="0" /></g><g
       id="g4751"
       transform="translate(384.3398,54.21)"><path
         d="m 0,0 c -0.848,-0.516 -1.539,-1.241 -2.126,-2.028 -0.175,0.31 -0.216,0.691 -0.438,0.967 -0.129,0.167 -0.356,0.105 -0.528,0.11 -0.228,-0.027 -0.449,0.029 -0.658,0.096 0.253,0.346 0.185,0.88 -0.195,1.115 -0.401,0.285 -1.03,0.032 -1.137,-0.45 -0.176,-0.532 0.382,-1.056 0.902,-0.919 0.288,-0.407 0.776,-0.337 1.202,-0.356 0.19,-0.324 0.328,-0.695 0.578,-0.988 -0.45,-0.901 -0.709,-1.896 -0.725,-2.902 0.572,-0.245 1.162,-0.491 1.744,-0.729 0.025,0.626 0.098,1.255 0.199,1.882 0.191,1.359 0.987,2.536 1.917,3.517 C 0.498,-0.448 0.24,-0.232 0,0"
         style="fill:#2f3b66;fill-opacity:1;fill-rule:nonzero;stroke:none"
         id="path4753"
         inkscape:connector-curvature="0" /></g><g
       id="g4755"
       transform="translate(394.1641,43.459)"><path
         d="m 0,0 c -0.924,-0.044 -1.845,-0.051 -2.77,-0.009 -1.48,0.078 -2.966,0.206 -4.412,0.536 -1.031,0.205 -2.037,0.501 -3.047,0.791 0.166,-1.293 0.686,-2.532 1.432,-3.588 0.875,-1.241 2.06,-2.377 3.512,-2.837 1.143,-0.299 2.504,-0.692 4.853,-0.657 0.147,0.007 0.286,0.009 0.432,0.021 1.795,0.062 3.547,0.318 5.117,0.981 1.1,0.481 2.127,1.119 3.01,1.927 0.769,0.717 1.367,1.617 1.779,2.587 0.397,0.902 0.756,2.543 0.715,3.379 C 8.525,1.937 6.18,0.896 3.789,0.49 2.543,0.223 1.273,0.069 0,0"
         style="fill:#2f3b66;fill-opacity:1;fill-rule:nonzero;stroke:none"
         id="path4757"
         inkscape:connector-curvature="0" /></g><g
       id="g4759"
       transform="translate(297.1406,575.374)"><path
         d="m 0,0 0.107,-4.812 -54.865,-13.402 -0.036,5.431 z"
         style="fill:#2f3b66;fill-opacity:1;fill-rule:nonzero;stroke:none"
         id="path4761"
         inkscape:connector-curvature="0" /></g><g
       id="g4763"
       transform="translate(149.9883,576.3193)"><path
         d="m 0,0 92.358,-13.686 0.036,-5.432 -92.525,14.999 z"
         style="fill:#2f3b66;fill-opacity:1;fill-rule:nonzero;stroke:none"
         id="path4765"
         inkscape:connector-curvature="0" /></g><g
       id="g4767"
       transform="translate(166.9531,651.2627)"><path
         d="M 0,0 -16.855,-7.535 V -72.463 L 0,-74.875 Z"
         style="fill:#2f3b66;fill-opacity:1;fill-rule:nonzero;stroke:none"
         id="path4769"
         inkscape:connector-curvature="0" /></g><g
       id="g4771"
       transform="translate(239.8125,657.6973)"><path
         d="m 0,0 v 9.21 l -68.895,-23.318 v -7.559 z"
         style="fill:#2f3b66;fill-opacity:1;fill-rule:nonzero;stroke:none"
         id="path4773"
         inkscape:connector-curvature="0" /></g><g
       id="g4775"
       transform="translate(239.4551,641.4082)"><path
         d="M 0,0 V 9.919 L -68.538,-9.492 v -6.596 z"
         style="fill:#2f3b66;fill-opacity:1;fill-rule:nonzero;stroke:none"
         id="path4777"
         inkscape:connector-curvature="0" /></g><g
       id="g4779"
       transform="translate(239.4551,625.5605)"><path
         d="M 0,0 V 9.914 L -68.538,-3.413 v -6.596 z"
         style="fill:#2f3b66;fill-opacity:1;fill-rule:nonzero;stroke:none"
         id="path4781"
         inkscape:connector-curvature="0" /></g><g
       id="g4783"
       transform="translate(239.4551,609.6241)"><path
         d="M 0,0 V 9.914 L -68.538,2.092 v -6.599 z"
         style="fill:#2f3b66;fill-opacity:1;fill-rule:nonzero;stroke:none"
         id="path4785"
         inkscape:connector-curvature="0" /></g><g
       id="g4787"
       transform="translate(239.4551,594.7491)"><path
         d="M 0,0 V 9.912 L -68.538,6.947 V 0.35 Z"
         style="fill:#2f3b66;fill-opacity:1;fill-rule:nonzero;stroke:none"
         id="path4789"
         inkscape:connector-curvature="0" /></g><g
       id="g4791"
       transform="translate(239.4551,578.6826)"><path
         d="m 0,0 v 9.91 l -68.538,2.02 V 5.326 Z"
         style="fill:#2f3b66;fill-opacity:1;fill-rule:nonzero;stroke:none"
         id="path4793"
         inkscape:connector-curvature="0" /></g><g
       id="g4795"
       transform="translate(239.4551,566.1934)"><path
         d="m 0,0 v 8.104 l -68.538,6.429 V 9.572 Z"
         style="fill:#2f3b66;fill-opacity:1;fill-rule:nonzero;stroke:none"
         id="path4797"
         inkscape:connector-curvature="0" /></g><g
       id="g4799"
       transform="translate(192.0781,654.8536)"><path
         d="M 0,0 -21.161,-3.607 V -8.555 Z"
         style="fill:#2f3b66;fill-opacity:1;fill-rule:nonzero;stroke:none"
         id="path4801"
         inkscape:connector-curvature="0" /></g><g
       id="g4803"
       transform="translate(245.7383,653.627)"><path
         d="M 0,0 H -3.449 V 23.64 L 0,9.032 Z"
         style="fill:#2f3b66;fill-opacity:1;fill-rule:nonzero;stroke:none"
         id="path4805"
         inkscape:connector-curvature="0" /></g><g
       id="g4807"
       transform="translate(297.4443,611.5713)"><path
         d="m 0,0 0.072,6.478 -33.23,26.255 V 10.841 Z"
         style="fill:#2f3b66;fill-opacity:1;fill-rule:nonzero;stroke:none"
         id="path4809"
         inkscape:connector-curvature="0" /></g><g
       id="g4811"
       transform="translate(297.2539,595.3495)"><path
         d="M 0,0 -32.968,4.898 V -7.446 l 32.867,-1.372 z"
         style="fill:#2f3b66;fill-opacity:1;fill-rule:nonzero;stroke:none"
         id="path4813"
         inkscape:connector-curvature="0" /></g><g
       id="g4815"
       transform="translate(264.2861,582.7021)"><path
         d="m 0,0 v -11.532 l 32.766,6.837 0.051,4.848 z"
         style="fill:#2f3b66;fill-opacity:1;fill-rule:nonzero;stroke:none"
         id="path4817"
         inkscape:connector-curvature="0" /></g><g
       id="g4819"
       transform="translate(264.2861,605.4473)"><path
         d="M 0,0 33.005,-6.516 33.107,2.064 0,12.125 Z"
         style="fill:#2f3b66;fill-opacity:1;fill-rule:nonzero;stroke:none"
         id="path4821"
         inkscape:connector-curvature="0" /></g><g
       id="g4823"
       transform="translate(262.6006,655.4239)"><path
         d="M 0,0 -20.312,12.218 V -89.748 L 0,-84.626 Z"
         style="fill:#2f3b66;fill-opacity:1;fill-rule:nonzero;stroke:none"
         id="path4825"
         inkscape:connector-curvature="0" /></g></g></g><text
   transform="matrix(0.86688883,0,0,-1,107.0674,515.2207)"
   style="font-variant:normal;font-weight:bold;font-stretch:normal;font-size:33.93930054px;font-family:'Familiar Pro';-inkscape-font-specification:FamiliarPro-Bold;writing-mode:lr-tb;fill:#2f3b66;fill-opacity:1;fill-rule:nonzero;stroke:none"
   id="text4829"><tspan
     x="0 24.504175 50.908951 75.413124 97.371849 118.10876 141.93416 166.43832 190.26031 210.99724 220.43236 246.83713"
     y="0"
     sodipodi:role="line"
     id="tspan4827">CONSTRUCTION</tspan></text>


<text
   transform="matrix(0.86688682,0,0,-1,146.2451,498.5469)"
   style="font-variant:normal;font-weight:bold;font-stretch:normal;font-size:14.56579971px;font-family:'Familiar Pro';-inkscape-font-specification:FamiliarPro-Bold;writing-mode:lr-tb;fill:#2f3b66;fill-opacity:1;fill-rule:nonzero;stroke:none"
   id="text4833"><tspan
     x="0 10.29802 21.528252 32.758484 40.755108 47.13493 56.908581 67.192032 77.621147 84.802086 91.181908 102.41214 113.64237 124.07149 134.5006 140.88042 152.11066 162.53976 170.53639"
     y="0"
     sodipodi:role="line"
     id="tspan4831">Your Text goes here</tspan></text>


<g
   id="g5083"><g
     id="g5085"
     clip-path="url(#clipPath5089)"><g
       id="g5091"
       transform="translate(209.6973,309.7071)"><path
         d="M 0,0 V -72.316 H -38.213 V 10 L -10.836,9.521 V 1.996 Z"
         style="fill:#2f3b66;fill-opacity:1;fill-rule:nonzero;stroke:none"
         id="path5093"
         inkscape:connector-curvature="0" /></g><g
       id="g5095"
       transform="translate(196.3135,309.5899)"><path
         d="M 0,0 V 4.75 C -0.452,4.681 -0.909,4.631 -1.403,4.623 -8.374,4.594 -15.331,4.28 -22.296,4.089 v -76.288 h 33.138 v 70.2 z"
         style="fill:#2f3b66;fill-opacity:1;fill-rule:nonzero;stroke:none"
         id="path5097"
         inkscape:connector-curvature="0" /></g><g
       id="g5099"
       transform="translate(178.0059,245.0274)"><path
         d="M 0,0 3.608,0.249 3.592,66.422 -0.016,66.181 Z"
         style="fill:#f2f2f2;fill-opacity:1;fill-rule:nonzero;stroke:none"
         id="path5101"
         inkscape:connector-curvature="0" /></g><g
       id="g5103"
       transform="translate(184.3594,245.336)"><path
         d="M 0,0 3.617,0.249 3.596,66.415 -0.015,66.178 Z"
         style="fill:#f2f2f2;fill-opacity:1;fill-rule:nonzero;stroke:none"
         id="path5105"
         inkscape:connector-curvature="0" /></g><g
       id="g5107"
       transform="translate(190.7285,245.6387)"><path
         d="M 0,0 3.602,0.251 3.587,66.417 -0.03,66.182 Z"
         style="fill:#f2f2f2;fill-opacity:1;fill-rule:nonzero;stroke:none"
         id="path5109"
         inkscape:connector-curvature="0" /></g><g
       id="g5111"
       transform="translate(259.7988,237.587)"><path
         d="m 0,0 v 60.672 l -30.538,8.425 V -0.564 Z"
         style="fill:#2f3b66;fill-opacity:1;fill-rule:nonzero;stroke:none"
         id="path5113"
         inkscape:connector-curvature="0" /></g><g
       id="g5115"
       transform="translate(214.1426,301.1084)"><path
         d="m 0,0 v -18.115 l -12.964,-4.584 V -63.7 l 28.082,-0.385 v 69.66 z"
         style="fill:#2f3b66;fill-opacity:1;fill-rule:nonzero;stroke:none"
         id="path5117"
         inkscape:connector-curvature="0" /></g><g
       id="g5119"
       transform="translate(273.9434,334.6475)"><path
         d="m 0,0 v -97.107 h -17.312 v 93.84 z"
         style="fill:#2f3b66;fill-opacity:1;fill-rule:nonzero;stroke:none"
         id="path5121"
         inkscape:connector-curvature="0" /></g><g
       id="g5123"
       transform="translate(259.3848,237.5401)"><path
         d="m 0,0 v 91.557 l 11.809,2.221 V 0 Z"
         style="fill:#2f3b66;fill-opacity:1;fill-rule:nonzero;stroke:none"
         id="path5125"
         inkscape:connector-curvature="0" /></g><g
       id="g5127"
       transform="translate(326.418,237.7256)"><path
         d="m 0,0 -52.475,-0.004 v 96.926 l 14.489,-2.441 V 8.576 Z"
         style="fill:#2f3b66;fill-opacity:1;fill-rule:nonzero;stroke:none"
         id="path5129"
         inkscape:connector-curvature="0" /></g><g
       id="g5131"
       transform="translate(175.9648,237.5078)"><path
         d="M 0,0 V 80.485 L -8.975,92.758 V 7.571 l -40.75,-7.568 z"
         style="fill:#2f3b66;fill-opacity:1;fill-rule:nonzero;stroke:none"
         id="path5133"
         inkscape:connector-curvature="0" /></g><path
       d="m 263.117,310.824 h 5.111 v 5.114 h -5.111 z"
       style="fill:#f2f2f2;fill-opacity:1;fill-rule:nonzero;stroke:none"
       id="path5135"
       inkscape:connector-curvature="0" /><path
       d="m 263.117,299.294 h 5.111 v 5.121 h -5.111 z"
       style="fill:#f2f2f2;fill-opacity:1;fill-rule:nonzero;stroke:none"
       id="path5137"
       inkscape:connector-curvature="0" /><path
       d="m 263.117,287.774 h 5.111 v 5.105 h -5.111 z"
       style="fill:#f2f2f2;fill-opacity:1;fill-rule:nonzero;stroke:none"
       id="path5139"
       inkscape:connector-curvature="0" /><path
       d="m 263.117,276.243 h 5.111 v 5.113 h -5.111 z"
       style="fill:#f2f2f2;fill-opacity:1;fill-rule:nonzero;stroke:none"
       id="path5141"
       inkscape:connector-curvature="0" /><path
       d="m 263.117,264.724 h 5.111 v 5.106 h -5.111 z"
       style="fill:#f2f2f2;fill-opacity:1;fill-rule:nonzero;stroke:none"
       id="path5143"
       inkscape:connector-curvature="0" /><path
       d="m 263.117,253.2 h 5.111 v 5.11 h -5.111 z"
       style="fill:#f2f2f2;fill-opacity:1;fill-rule:nonzero;stroke:none"
       id="path5145"
       inkscape:connector-curvature="0" /><g
       id="g5147"
       transform="translate(223.5527,297.7354)"><path
         d="m 0,0 -3.916,-0.871 0.023,-5.168 3.921,0.87 z"
         style="fill:#f2f2f2;fill-opacity:1;fill-rule:nonzero;stroke:none"
         id="path5149"
         inkscape:connector-curvature="0" /></g><g
       id="g5151"
       transform="translate(223.6172,286.0703)"><path
         d="m 0,0 -3.928,-0.863 0.029,-5.18 3.922,0.864 z"
         style="fill:#f2f2f2;fill-opacity:1;fill-rule:nonzero;stroke:none"
         id="path5153"
         inkscape:connector-curvature="0" /></g><g
       id="g5155"
       transform="translate(223.6758,274.4024)"><path
         d="m 0,0 -3.928,-0.862 0.035,-5.167 3.924,0.865 z"
         style="fill:#f2f2f2;fill-opacity:1;fill-rule:nonzero;stroke:none"
         id="path5157"
         inkscape:connector-curvature="0" /></g><g
       id="g5159"
       transform="translate(223.7344,262.7471)"><path
         d="m 0,0 -3.922,-0.867 0.03,-5.179 3.92,0.868 z"
         style="fill:#f2f2f2;fill-opacity:1;fill-rule:nonzero;stroke:none"
         id="path5161"
         inkscape:connector-curvature="0" /></g><g
       id="g5163"
       transform="translate(223.792,251.0762)"><path
         d="m 0,0 -3.914,-0.869 0.02,-5.165 3.924,0.873 z"
         style="fill:#f2f2f2;fill-opacity:1;fill-rule:nonzero;stroke:none"
         id="path5165"
         inkscape:connector-curvature="0" /></g><g
       id="g5167"
       transform="translate(173.5312,312.2325)"><path
         d="m 0,0 -3.349,-0.741 0.016,-4.402 3.342,0.74 z"
         style="fill:#f2f2f2;fill-opacity:1;fill-rule:nonzero;stroke:none"
         id="path5169"
         inkscape:connector-curvature="0" /></g><g
       id="g5171"
       transform="translate(173.5625,302.2979)"><path
         d="m 0,0 -3.35,-0.741 0.008,-4.417 3.354,0.734 z"
         style="fill:#f2f2f2;fill-opacity:1;fill-rule:nonzero;stroke:none"
         id="path5173"
         inkscape:connector-curvature="0" /></g><g
       id="g5175"
       transform="translate(173.583,292.3428)"><path
         d="m 0,0 -3.34,-0.731 0.007,-4.404 3.346,0.733 z"
         style="fill:#f2f2f2;fill-opacity:1;fill-rule:nonzero;stroke:none"
         id="path5177"
         inkscape:connector-curvature="0" /></g><g
       id="g5179"
       transform="translate(173.6113,282.4063)"><path
         d="m 0,0 -3.34,-0.734 0.007,-4.414 3.354,0.731 z"
         style="fill:#f2f2f2;fill-opacity:1;fill-rule:nonzero;stroke:none"
         id="path5181"
         inkscape:connector-curvature="0" /></g><g
       id="g5183"
       transform="translate(173.6484,272.46)"><path
         d="m 0,0 -3.355,-0.735 0.014,-4.408 3.348,0.733 z"
         style="fill:#f2f2f2;fill-opacity:1;fill-rule:nonzero;stroke:none"
         id="path5185"
         inkscape:connector-curvature="0" /></g><g
       id="g5187"
       transform="translate(173.4141,262.6495)"><path
         d="m 0,0 -3.34,-0.737 0.009,-4.406 3.347,0.735 z"
         style="fill:#f2f2f2;fill-opacity:1;fill-rule:nonzero;stroke:none"
         id="path5189"
         inkscape:connector-curvature="0" /></g><g
       id="g5191"
       transform="translate(173.4512,252.71)"><path
         d="M 0,0 -3.355,-0.733 -3.34,-5.15 0.007,-4.413 Z"
         style="fill:#f2f2f2;fill-opacity:1;fill-rule:nonzero;stroke:none"
         id="path5193"
         inkscape:connector-curvature="0" /></g><g
       id="g5195"
       transform="translate(233.3789,299.0362)"><path
         d="m 0,0 v -5.335 l 20.406,-5.103 v 5.205 z"
         style="fill:#f2f2f2;fill-opacity:1;fill-rule:nonzero;stroke:none"
         id="path5197"
         inkscape:connector-curvature="0" /></g><g
       id="g5199"
       transform="translate(233.3789,286.3565)"><path
         d="m 0,0 v -5.322 l 20.406,-3.901 v 5.2 z"
         style="fill:#f2f2f2;fill-opacity:1;fill-rule:nonzero;stroke:none"
         id="path5201"
         inkscape:connector-curvature="0" /></g><g
       id="g5203"
       transform="translate(233.3789,273.9385)"><path
         d="m 0,0 v -5.325 l 20.406,-2.918 v 5.202 z"
         style="fill:#f2f2f2;fill-opacity:1;fill-rule:nonzero;stroke:none"
         id="path5205"
         inkscape:connector-curvature="0" /></g><g
       id="g5207"
       transform="translate(233.3789,262.2002)"><path
         d="m 0,0 v -5.324 l 20.406,-2.327 v 5.194 z"
         style="fill:#f2f2f2;fill-opacity:1;fill-rule:nonzero;stroke:none"
         id="path5209"
         inkscape:connector-curvature="0" /></g><g
       id="g5211"
       transform="translate(233.3789,249.3487)"><path
         d="M 0,0 V -5.326 L 20.406,-6.34 v 5.203 z"
         style="fill:#f2f2f2;fill-opacity:1;fill-rule:nonzero;stroke:none"
         id="path5213"
         inkscape:connector-curvature="0" /></g><g
       id="g5215"
       transform="translate(253.7852,277.1338)"><path
         d="M 0,0 0.937,-0.18 V 5.018 L 0,5.199"
         style="fill:#f2f2f2;fill-opacity:1;fill-rule:nonzero;stroke:none"
         id="path5217"
         inkscape:connector-curvature="0" /></g></g></g><text
   transform="matrix(0.8668893,0,0,-1,106.1553,195.2002)"
   style="font-variant:normal;font-weight:bold;font-stretch:normal;font-size:34.67639923px;font-family:'Familiar Pro';-inkscape-font-specification:FamiliarPro-Bold;writing-mode:lr-tb;fill:#2f3b66;fill-opacity:1;fill-rule:nonzero;stroke:none"
   id="text5221"><tspan
     x="0 25.036362 52.014599 77.050964 99.486595 120.67387 145.01324 170.04959 194.38896 215.57625 225.21628 252.19452"
     y="0"
     sodipodi:role="line"
     id="tspan5219">CONSTRUCTION</tspan></text>


<text
   transform="matrix(0.86688707,0,0,-1,146.1846,178.168)"
   style="font-variant:normal;font-weight:bold;font-stretch:normal;font-size:14.88210011px;font-family:'Familiar Pro';-inkscape-font-specification:FamiliarPro-Bold;writing-mode:lr-tb;fill:#2f3b66;fill-opacity:1;fill-rule:nonzero;stroke:none"
   id="text5225"><tspan
     x="0 10.521645 21.995745 33.469841 41.640118 48.158474 58.142876 68.651131 79.306709 86.643585 93.161949 104.63605 116.11015 126.76572 137.42131 143.93967 155.41377 166.06935 174.23962"
     y="0"
     sodipodi:role="line"
     id="tspan5223">Your Text goes here</tspan></text>


<g
   id="g5227"><g
     id="g5229"
     clip-path="url(#clipPath5233)"><g
       id="g5235"
       transform="translate(485.5527,234.5518)"><path
         d="m 0,0 c 0,0 37.015,10.739 93.613,10.739 33.981,0.845 81.844,-5.493 100.465,-12.399 0,0 -41.967,7.125 -100.225,6.846 C 49.992,4.979 0,0 0,0"
         style="fill:#2f3b66;fill-opacity:1;fill-rule:evenodd;stroke:none"
         id="path5237"
         inkscape:connector-curvature="0" /></g><g
       id="g5239"
       transform="translate(556.4951,317.3174)"><path
         d="m 0,0 0.298,-73.935 -19.418,0.022 -0.458,62.153 17.292,14.919"
         style="fill:#2f3b66;fill-opacity:1;fill-rule:nonzero;stroke:none"
         id="path5241"
         inkscape:connector-curvature="0" /></g><g
       id="g5243"
       transform="translate(628.2656,243.4366)"><path
         d="M 0,0 H -13.993 V 57.832 L 0,47.356 Z"
         style="fill:#2f3b66;fill-opacity:1;fill-rule:nonzero;stroke:none"
         id="path5245"
         inkscape:connector-curvature="0" /></g><g
       id="g5247"
       transform="translate(549.75,243.6192)"><path
         d="M 0,0 -0.196,83.067 12.578,94.704 27.857,84.982 27.746,17.819 25.541,16.122 25.357,83.067 13.541,90.506 13.666,-0.161 Z"
         style="fill:#2f3b66;fill-opacity:1;fill-rule:nonzero;stroke:none"
         id="path5249"
         inkscape:connector-curvature="0" /></g><g
       id="g5251"
       transform="translate(563.291,334.125)"><path
         d="m 0,0 0.125,-90.667 -13.666,0.035 -0.196,83.194 12.774,11.636"
         style="fill:#2f3b66;fill-opacity:1;fill-rule:nonzero;stroke:none"
         id="path5253"
         inkscape:connector-curvature="0" /></g><g
       id="g5255"
       transform="translate(615.1641,243.2901)"><path
         d="m 0,0 0.197,66.658 -12.781,9.312 -15.274,-7.78 0.096,-51.109 2.383,-1.525 0.022,51.102 11.816,5.949 V -0.502 Z"
         style="fill:#2f3b66;fill-opacity:1;fill-rule:nonzero;stroke:none"
         id="path5257"
         inkscape:connector-curvature="0" /></g><g
       id="g5259"
       transform="translate(586.9316,342.0616)"><path
         d="m 0,0 h -9.072 l 4.539,35.837 z"
         style="fill:#2f3b66;fill-opacity:1;fill-rule:nonzero;stroke:none"
         id="path5261"
         inkscape:connector-curvature="0" /></g><path
       d="m 588.347,332.565 h -11.479 v 21.658 h 11.479 z"
       style="fill:#2f3b66;fill-opacity:1;fill-rule:nonzero;stroke:none"
       id="path5263"
       inkscape:connector-curvature="0" /><g
       id="g5265"
       transform="translate(602.5801,319.4356)"><path
         d="m 0,0 -15.273,-7.78 0.095,-51.113 2.383,-1.526 0.023,51.104 11.815,5.949"
         style="fill:#2f3b66;fill-opacity:1;fill-rule:nonzero;stroke:none"
         id="path5267"
         inkscape:connector-curvature="0" /></g><g
       id="g5269"
       transform="translate(589.7617,243.3604)"><path
         d="M 0,0 -7.856,-0.038 -14.676,0 V 103.444 H 0 Z"
         style="fill:#2f3b66;fill-opacity:1;fill-rule:nonzero;stroke:none"
         id="path5271"
         inkscape:connector-curvature="0" /></g><g
       id="g5273"
       transform="translate(589.7617,243.3604)"><path
         d="M 0,0 -7.856,-0.038 -14.676,0 V 103.444 H 0 Z"
         style="fill:#2f3b66;fill-opacity:1;fill-rule:nonzero;stroke:none"
         id="path5275"
         inkscape:connector-curvature="0" /></g><g
       id="g5277"
       transform="translate(582.3984,377.8985)"><path
         d="m 0,0 v 0 l -2.998,-23.675 h -2.533 v -7.419 h -1.781 v -103.444 l 6.82,-0.038"
         style="fill:#2f3b66;fill-opacity:1;fill-rule:nonzero;stroke:none"
         id="path5279"
         inkscape:connector-curvature="0" /></g><g
       id="g5281"
       transform="translate(568.4648,326.2764)"><path
         d="M 0,0 1.196,-1.096 V -83.133 H 0 Z"
         style="fill:#2f3b66;fill-opacity:1;fill-rule:nonzero;stroke:none"
         id="path5283"
         inkscape:connector-curvature="0" /></g><g
       id="g5285"
       transform="translate(595.5068,309.8692)"><path
         d="M 0,0 -1.19,-1.053 V -66.626 H 0 Z"
         style="fill:#2f3b66;fill-opacity:1;fill-rule:nonzero;stroke:none"
         id="path5287"
         inkscape:connector-curvature="0" /></g></g></g><text
   transform="matrix(0.86689123,0,0,-1,458.8721,195.3076)"
   style="font-variant:normal;font-weight:bold;font-stretch:normal;font-size:33.90309906px;font-family:'Familiar Pro';-inkscape-font-specification:FamiliarPro-Bold;writing-mode:lr-tb;fill:#2f3b66;fill-opacity:1;fill-rule:nonzero;stroke:none"
   id="text5291"><tspan
     x="0 24.478039 50.854649 75.332687 97.26799 117.98279 141.78276 166.2608 190.06078 210.77557 220.20064 246.57724"
     y="0"
     sodipodi:role="line"
     id="tspan5289">CONSTRUCTION</tspan></text>


<text
   transform="matrix(0.86688934,0,0,-1,498.0029,178.6543)"
   style="font-variant:normal;font-weight:bold;font-stretch:normal;font-size:14.55029964px;font-family:'Familiar Pro';-inkscape-font-specification:FamiliarPro-Bold;writing-mode:lr-tb;fill:#2f3b66;fill-opacity:1;fill-rule:nonzero;stroke:none"
   id="text5295"><tspan
     x="0 10.287062 21.505342 32.723625 40.711739 47.08477 56.848022 67.120537 77.538551 84.711845 91.084877 102.30316 113.52144 123.93945 134.35747 140.7305 151.94878 162.36679 170.35492"
     y="0"
     sodipodi:role="line"
     id="tspan5293">Your Text goes here</tspan></text>


<g
   style="fill:#005c9d;fill-opacity:0.52156863"
   clip-path="url(#clipPath4841)"
   id="g4837"
   transform="matrix(0.60877152,0,0,0.4646945,-1119.3557,489.94934)"><g
     style="fill:#005c9d;fill-opacity:0.52156863"
     transform="translate(513.7285,619.3506)"
     id="g4843"><path
       inkscape:connector-curvature="0"
       id="path4845"
       style="fill:#005c9d;fill-opacity:0.52156863;fill-rule:evenodd;stroke:none"
       d="M 0,0 3,1.926 V -0.93 L 0,-2.861 Z" /></g><g
     style="fill:#005c9d;fill-opacity:0.52156863"
     transform="translate(518.4863,622.4239)"
     id="g4847"><path
       inkscape:connector-curvature="0"
       id="path4849"
       style="fill:#005c9d;fill-opacity:0.52156863;fill-rule:evenodd;stroke:none"
       d="M 0,0 3.02,1.98 V -0.863 L 0,-2.786 Z" /></g><g
     style="fill:#005c9d;fill-opacity:0.52156863"
     transform="translate(513.7285,610.8946)"
     id="g4851"><path
       inkscape:connector-curvature="0"
       id="path4853"
       style="fill:#005c9d;fill-opacity:0.52156863;fill-rule:evenodd;stroke:none"
       d="M 0,0 3,1.919 V -0.936 L 0,-2.846 Z" /></g><g
     style="fill:#005c9d;fill-opacity:0.52156863"
     transform="translate(518.4863,613.9766)"
     id="g4855"><path
       inkscape:connector-curvature="0"
       id="path4857"
       style="fill:#005c9d;fill-opacity:0.52156863;fill-rule:evenodd;stroke:none"
       d="M 0,0 3.02,1.979 V -0.878 L 0,-2.801 Z" /></g><g
     style="fill:#005c9d;fill-opacity:0.52156863"
     transform="translate(513.7285,602.4454)"
     id="g4859"><path
       inkscape:connector-curvature="0"
       id="path4861"
       style="fill:#005c9d;fill-opacity:0.52156863;fill-rule:evenodd;stroke:none"
       d="M 0,0 3,1.91 V -0.934 L 0,-2.858 Z" /></g><g
     style="fill:#005c9d;fill-opacity:0.52156863"
     transform="translate(518.4863,605.5204)"
     id="g4863"><path
       inkscape:connector-curvature="0"
       id="path4865"
       style="fill:#005c9d;fill-opacity:0.52156863;fill-rule:evenodd;stroke:none"
       d="M 0,0 3.02,1.984 V -0.879 L 0,-2.8 Z" /></g><g
     style="fill:#005c9d;fill-opacity:0.52156863"
     transform="translate(513.7285,594.3487)"
     id="g4867"><path
       inkscape:connector-curvature="0"
       id="path4869"
       style="fill:#005c9d;fill-opacity:0.52156863;fill-rule:evenodd;stroke:none"
       d="M 0,0 3,1.921 V -0.933 L 0,-2.861 Z" /></g><g
     style="fill:#005c9d;fill-opacity:0.52156863"
     transform="translate(518.4863,597.4219)"
     id="g4871"><path
       inkscape:connector-curvature="0"
       id="path4873"
       style="fill:#005c9d;fill-opacity:0.52156863;fill-rule:evenodd;stroke:none"
       d="M 0,0 3.02,1.975 V -0.869 L 0,-2.785 Z" /></g><g
     style="fill:#005c9d;fill-opacity:0.52156863"
     transform="translate(513.7285,585.8868)"
     id="g4875"><path
       inkscape:connector-curvature="0"
       id="path4877"
       style="fill:#005c9d;fill-opacity:0.52156863;fill-rule:evenodd;stroke:none"
       d="M 0,0 3,1.921 V -0.934 L 0,-2.844 Z" /></g><g
     style="fill:#005c9d;fill-opacity:0.52156863"
     transform="translate(518.4863,588.9745)"
     id="g4879"><path
       inkscape:connector-curvature="0"
       id="path4881"
       style="fill:#005c9d;fill-opacity:0.52156863;fill-rule:evenodd;stroke:none"
       d="M 0,0 3.02,1.976 V -0.881 L 0,-2.805 Z" /></g><g
     style="fill:#005c9d;fill-opacity:0.52156863"
     transform="translate(513.7285,577.4443)"
     id="g4883"><path
       inkscape:connector-curvature="0"
       id="path4885"
       style="fill:#005c9d;fill-opacity:0.52156863;fill-rule:evenodd;stroke:none"
       d="M 0,0 3,1.914 V -0.937 L 0,-2.863 Z" /></g><g
     style="fill:#005c9d;fill-opacity:0.52156863"
     transform="translate(518.4863,580.5245)"
     id="g4887"><path
       inkscape:connector-curvature="0"
       id="path4889"
       style="fill:#005c9d;fill-opacity:0.52156863;fill-rule:evenodd;stroke:none"
       d="M 0,0 3.02,1.974 V -0.887 L 0,-2.809 Z" /></g><g
     style="fill:#005c9d;fill-opacity:0.52156863"
     transform="translate(646.2539,566.208)"
     id="g4891"><g
       id="g6454"
       style="fill:#005c9d;fill-opacity:0.52156863"><path
         d="m 0,0 v 17.843 l -0.652,1.13 -8.098,5.048 v 24.236 l -0.602,1.127 -18.999,12.188 -1.133,0.135 -18.729,-6.287 0.117,59.92 c 0,0.555 -0.277,1.066 -0.705,1.394 l -26.326,19.038 c -0.537,0.381 -1.218,0.428 -1.808,0.145 -0.557,-0.299 -0.921,-0.891 -0.921,-1.545 V 110.239 L -99.685,96.872 c -0.5,-0.315 -0.821,-0.859 -0.821,-1.467 V 61.887 l -20.529,6.69 c -0.256,0.074 -0.496,0.074 -0.742,0.018 l -0.059,0.089 -0.378,-0.282 c 0,0 -0.013,-0.006 -0.013,-0.01 -0.014,-0.006 -0.014,-0.006 -0.021,-0.017 l -14.03,-10.254 c -0.357,-0.258 -0.56,-0.642 -0.56,-1.082 V 3.322 c -19.455,-6.071 -30.625,-12.792 -30.625,-12.792 0,0 19.418,5.431 44.684,9.621 V 0.127 c 0.884,0.152 1.771,0.272 2.666,0.406 v 0.05 c 14.648,2.341 31.053,4.199 46.672,4.333 58.358,0.499 100.39,-17.369 100.39,-17.369 C 20.712,-8.303 11.185,-3.926 0,0"
         style="fill:#005c9d;fill-opacity:0.52156863;fill-rule:evenodd;stroke:none"
         id="path4893"
         inkscape:connector-curvature="0" /></g></g><g
     style="fill:#005c9d;fill-opacity:0.52156863"
     transform="translate(534.6748,621.71)"
     id="g4895"><path
       inkscape:connector-curvature="0"
       id="path4897"
       style="fill:#005c9d;fill-opacity:0.52156863;fill-rule:nonzero;stroke:none"
       d="M 0,0 -3.632,0.96 V 3.847 L 0,2.889 Z" /></g><g
     style="fill:#005c9d;fill-opacity:0.52156863"
     transform="translate(540.0195,620.4286)"
     id="g4899"><path
       inkscape:connector-curvature="0"
       id="path4901"
       style="fill:#005c9d;fill-opacity:0.52156863;fill-rule:nonzero;stroke:none"
       d="M 0,0 -3.641,0.96 V 3.842 L 0,2.885 Z" /></g><g
     style="fill:#005c9d;fill-opacity:0.52156863"
     transform="translate(534.6748,613.3799)"
     id="g4903"><path
       inkscape:connector-curvature="0"
       id="path4905"
       style="fill:#005c9d;fill-opacity:0.52156863;fill-rule:nonzero;stroke:none"
       d="M 0,0 -3.632,0.96 V 3.842 L 0,2.881 Z" /></g><g
     style="fill:#005c9d;fill-opacity:0.52156863"
     transform="translate(540.0195,612.0937)"
     id="g4907"><path
       inkscape:connector-curvature="0"
       id="path4909"
       style="fill:#005c9d;fill-opacity:0.52156863;fill-rule:nonzero;stroke:none"
       d="M 0,0 -3.641,0.96 V 3.847 L 0,2.888 Z" /></g><g
     style="fill:#005c9d;fill-opacity:0.52156863"
     transform="translate(534.6748,605.0391)"
     id="g4911"><path
       inkscape:connector-curvature="0"
       id="path4913"
       style="fill:#005c9d;fill-opacity:0.52156863;fill-rule:nonzero;stroke:none"
       d="M 0,0 -3.632,0.964 V 3.853 L 0,2.887 Z" /></g><g
     style="fill:#005c9d;fill-opacity:0.52156863"
     transform="translate(540.0195,603.7559)"
     id="g4915"><path
       inkscape:connector-curvature="0"
       id="path4917"
       style="fill:#005c9d;fill-opacity:0.52156863;fill-rule:nonzero;stroke:none"
       d="M 0,0 -3.641,0.963 V 3.852 L 0,2.887 Z" /></g><g
     style="fill:#005c9d;fill-opacity:0.52156863"
     transform="translate(534.6748,596.7071)"
     id="g4919"><path
       inkscape:connector-curvature="0"
       id="path4921"
       style="fill:#005c9d;fill-opacity:0.52156863;fill-rule:nonzero;stroke:none"
       d="M 0,0 -3.632,0.966 V 3.842 L 0,2.882 Z" /></g><g
     style="fill:#005c9d;fill-opacity:0.52156863"
     transform="translate(540.0195,595.4258)"
     id="g4923"><path
       inkscape:connector-curvature="0"
       id="path4925"
       style="fill:#005c9d;fill-opacity:0.52156863;fill-rule:nonzero;stroke:none"
       d="M 0,0 -3.641,0.961 V 3.849 L 0,2.882 Z" /></g><g
     style="fill:#005c9d;fill-opacity:0.52156863"
     transform="translate(534.6748,588.3721)"
     id="g4927"><path
       inkscape:connector-curvature="0"
       id="path4929"
       style="fill:#005c9d;fill-opacity:0.52156863;fill-rule:nonzero;stroke:none"
       d="M 0,0 -3.632,0.961 V 3.847 L 0,2.892 Z" /></g><g
     style="fill:#005c9d;fill-opacity:0.52156863"
     transform="translate(540.0195,587.0928)"
     id="g4931"><path
       inkscape:connector-curvature="0"
       id="path4933"
       style="fill:#005c9d;fill-opacity:0.52156863;fill-rule:nonzero;stroke:none"
       d="M 0,0 -3.641,0.964 V 3.847 L 0,2.885 Z" /></g><g
     style="fill:#005c9d;fill-opacity:0.52156863"
     transform="translate(534.6748,580.0332)"
     id="g4935"><path
       inkscape:connector-curvature="0"
       id="path4937"
       style="fill:#005c9d;fill-opacity:0.52156863;fill-rule:nonzero;stroke:none"
       d="M 0,0 -3.632,0.967 V 3.853 L 0,2.892 Z" /></g><g
     style="fill:#005c9d;fill-opacity:0.52156863"
     transform="translate(540.0195,578.7539)"
     id="g4939"><path
       inkscape:connector-curvature="0"
       id="path4941"
       style="fill:#005c9d;fill-opacity:0.52156863;fill-rule:nonzero;stroke:none"
       d="M 0,0 -3.641,0.964 V 3.846 L 0,2.885 Z" /></g><g
     style="fill:#005c9d;fill-opacity:0.52156863"
     transform="translate(633.2266,609.998)"
     id="g4943"><path
       inkscape:connector-curvature="0"
       id="path4945"
       style="fill:#005c9d;fill-opacity:0.52156863;fill-rule:evenodd;stroke:none"
       d="M 0,0 -12.143,7.63 V 4.775 L 0,-2.851 Z" /></g><g
     style="fill:#005c9d;fill-opacity:0.52156863"
     transform="translate(633.2266,599.9286)"
     id="g4947"><path
       inkscape:connector-curvature="0"
       id="path4949"
       style="fill:#005c9d;fill-opacity:0.52156863;fill-rule:evenodd;stroke:none"
       d="M 0,0 -12.143,7.63 V 4.786 L 0,-2.85 Z" /></g><g
     style="fill:#005c9d;fill-opacity:0.52156863"
     transform="translate(552.1152,653.7168)"
     id="g4951"><path
       inkscape:connector-curvature="0"
       id="path4953"
       style="fill:#005c9d;fill-opacity:0.52156863;fill-rule:evenodd;stroke:none"
       d="M 0,0 5.049,3.212 V -1.572 L 0,-4.779 Z" /></g><g
     style="fill:#005c9d;fill-opacity:0.52156863"
     transform="translate(552.1152,639.5459)"
     id="g4955"><path
       inkscape:connector-curvature="0"
       id="path4957"
       style="fill:#005c9d;fill-opacity:0.52156863;fill-rule:evenodd;stroke:none"
       d="M 0,0 5.049,3.205 V -1.562 L 0,-4.775 Z" /></g><g
     style="fill:#005c9d;fill-opacity:0.52156863"
     transform="translate(560.1113,644.6895)"
     id="g4959"><path
       inkscape:connector-curvature="0"
       id="path4961"
       style="fill:#005c9d;fill-opacity:0.52156863;fill-rule:evenodd;stroke:none"
       d="M 0,0 5.062,3.325 V -1.463 L 0,-4.675 Z" /></g><g
     style="fill:#005c9d;fill-opacity:0.52156863"
     transform="translate(560.1113,657.9521)"
     id="g4963"><path
       inkscape:connector-curvature="0"
       id="path4965"
       style="fill:#005c9d;fill-opacity:0.52156863;fill-rule:evenodd;stroke:none"
       d="M 0,0 5.062,3.304 V -1.467 L 0,-4.686 Z" /></g><g
     style="fill:#005c9d;fill-opacity:0.52156863"
     transform="translate(552.1152,625.3896)"
     id="g4967"><path
       inkscape:connector-curvature="0"
       id="path4969"
       style="fill:#005c9d;fill-opacity:0.52156863;fill-rule:evenodd;stroke:none"
       d="M 0,0 5.049,3.213 V -1.558 L 0,-4.779 Z" /></g><g
     style="fill:#005c9d;fill-opacity:0.52156863"
     transform="translate(560.1113,630.5497)"
     id="g4971"><path
       inkscape:connector-curvature="0"
       id="path4973"
       style="fill:#005c9d;fill-opacity:0.52156863;fill-rule:evenodd;stroke:none"
       d="M 0,0 5.062,3.307 V -1.488 L 0,-4.695 Z" /></g><g
     style="fill:#005c9d;fill-opacity:0.52156863"
     transform="translate(552.1152,612.5909)"
     id="g4975"><path
       inkscape:connector-curvature="0"
       id="path4977"
       style="fill:#005c9d;fill-opacity:0.52156863;fill-rule:evenodd;stroke:none"
       d="M 0,0 5.049,3.237 V -1.558 L 0,-4.756 Z" /></g><g
     style="fill:#005c9d;fill-opacity:0.52156863"
     transform="translate(560.1113,617.7538)"
     id="g4979"><path
       inkscape:connector-curvature="0"
       id="path4981"
       style="fill:#005c9d;fill-opacity:0.52156863;fill-rule:evenodd;stroke:none"
       d="M 0,0 5.062,3.297 V -1.478 L 0,-4.7 Z" /></g><g
     style="fill:#005c9d;fill-opacity:0.52156863"
     transform="translate(552.1152,598.4346)"
     id="g4983"><path
       inkscape:connector-curvature="0"
       id="path4985"
       style="fill:#005c9d;fill-opacity:0.52156863;fill-rule:evenodd;stroke:none"
       d="M 0,0 5.049,3.225 V -1.551 L 0,-4.775 Z" /></g><g
     style="fill:#005c9d;fill-opacity:0.52156863"
     transform="translate(560.1113,603.585)"
     id="g4987"><path
       inkscape:connector-curvature="0"
       id="path4989"
       style="fill:#005c9d;fill-opacity:0.52156863;fill-rule:evenodd;stroke:none"
       d="M 0,0 5.062,3.316 V -1.456 L 0,-4.691 Z" /></g><g
     style="fill:#005c9d;fill-opacity:0.52156863"
     transform="translate(552.1152,584.2939)"
     id="g4991"><path
       inkscape:connector-curvature="0"
       id="path4993"
       style="fill:#005c9d;fill-opacity:0.52156863;fill-rule:evenodd;stroke:none"
       d="M 0,0 5.049,3.203 V -1.572 L 0,-4.799 Z" /></g><g
     style="fill:#005c9d;fill-opacity:0.52156863"
     transform="translate(560.1113,589.4286)"
     id="g4995"><path
       inkscape:connector-curvature="0"
       id="path4997"
       style="fill:#005c9d;fill-opacity:0.52156863;fill-rule:evenodd;stroke:none"
       d="M 0,0 5.062,3.315 V -1.478 L 0,-4.689 Z" /></g><g
     style="fill:#005c9d;fill-opacity:0.52156863"
     transform="translate(591.7881,671.1855)"
     id="g4999"><path
       inkscape:connector-curvature="0"
       id="path5001"
       style="fill:#005c9d;fill-opacity:0.52156863;fill-rule:evenodd;stroke:none"
       d="M 0,0 -5.816,3.683 V -1.813 L 0,-5.513 Z" /></g><g
     style="fill:#005c9d;fill-opacity:0.52156863"
     transform="translate(591.7881,654.8838)"
     id="g5003"><path
       inkscape:connector-curvature="0"
       id="path5005"
       style="fill:#005c9d;fill-opacity:0.52156863;fill-rule:evenodd;stroke:none"
       d="m 0,0 -5.816,3.709 v -5.5 L 0,-5.504 Z" /></g><g
     style="fill:#005c9d;fill-opacity:0.52156863"
     transform="translate(582.5898,660.8116)"
     id="g5007"><path
       inkscape:connector-curvature="0"
       id="path5009"
       style="fill:#005c9d;fill-opacity:0.52156863;fill-rule:evenodd;stroke:none"
       d="M 0,0 -5.819,3.811 V -1.69 L 0,-5.392 Z" /></g><g
     style="fill:#005c9d;fill-opacity:0.52156863"
     transform="translate(582.5898,676.0625)"
     id="g5011"><path
       inkscape:connector-curvature="0"
       id="path5013"
       style="fill:#005c9d;fill-opacity:0.52156863;fill-rule:evenodd;stroke:none"
       d="M 0,0 -5.819,3.814 V -1.677 L 0,-5.394 Z" /></g><g
     style="fill:#005c9d;fill-opacity:0.52156863"
     transform="translate(591.7881,638.5889)"
     id="g5015"><path
       inkscape:connector-curvature="0"
       id="path5017"
       style="fill:#005c9d;fill-opacity:0.52156863;fill-rule:evenodd;stroke:none"
       d="M 0,0 -5.816,3.708 V -1.774 L 0,-5.474 Z" /></g><g
     style="fill:#005c9d;fill-opacity:0.52156863"
     transform="translate(582.5898,644.5284)"
     id="g5019"><path
       inkscape:connector-curvature="0"
       id="path5021"
       style="fill:#005c9d;fill-opacity:0.52156863;fill-rule:evenodd;stroke:none"
       d="m 0,0 -5.819,3.795 v -5.49 L 0,-5.393 Z" /></g><g
     style="fill:#005c9d;fill-opacity:0.52156863"
     transform="translate(591.7881,623.8799)"
     id="g5023"><path
       inkscape:connector-curvature="0"
       id="path5025"
       style="fill:#005c9d;fill-opacity:0.52156863;fill-rule:evenodd;stroke:none"
       d="M 0,0 -5.816,3.699 V -1.814 L 0,-5.496 Z" /></g><g
     style="fill:#005c9d;fill-opacity:0.52156863"
     transform="translate(582.5898,629.7959)"
     id="g5027"><path
       inkscape:connector-curvature="0"
       id="path5029"
       style="fill:#005c9d;fill-opacity:0.52156863;fill-rule:evenodd;stroke:none"
       d="M 0,0 -5.819,3.802 V -1.689 L 0,-5.383 Z" /></g><g
     style="fill:#005c9d;fill-opacity:0.52156863"
     transform="translate(591.7881,607.5948)"
     id="g5031"><path
       inkscape:connector-curvature="0"
       id="path5033"
       style="fill:#005c9d;fill-opacity:0.52156863;fill-rule:evenodd;stroke:none"
       d="M 0,0 -5.816,3.708 V -1.797 L 0,-5.503 Z" /></g><g
     style="fill:#005c9d;fill-opacity:0.52156863"
     transform="translate(582.5898,613.5137)"
     id="g5035"><path
       inkscape:connector-curvature="0"
       id="path5037"
       style="fill:#005c9d;fill-opacity:0.52156863;fill-rule:evenodd;stroke:none"
       d="M 0,0 -5.819,3.816 V -1.696 L 0,-5.396 Z" /></g><g
     style="fill:#005c9d;fill-opacity:0.52156863"
     transform="translate(591.7881,591.3067)"
     id="g5039"><path
       inkscape:connector-curvature="0"
       id="path5041"
       style="fill:#005c9d;fill-opacity:0.52156863;fill-rule:evenodd;stroke:none"
       d="M 0,0 -5.816,3.701 V -1.792 L 0,-5.495 Z" /></g><g
     style="fill:#005c9d;fill-opacity:0.52156863"
     transform="translate(582.5898,597.2403)"
     id="g5043"><path
       inkscape:connector-curvature="0"
       id="path5045"
       style="fill:#005c9d;fill-opacity:0.52156863;fill-rule:evenodd;stroke:none"
       d="M 0,0 -5.819,3.799 V -1.71 L 0,-5.404 Z" /></g><g
     style="fill:#005c9d;fill-opacity:0.52156863"
     transform="translate(633.2266,590.2061)"
     id="g5047"><path
       inkscape:connector-curvature="0"
       id="path5049"
       style="fill:#005c9d;fill-opacity:0.52156863;fill-rule:evenodd;stroke:none"
       d="M 0,0 -12.143,7.631 V 4.765 L 0,-2.863 Z" /></g><g
     style="fill:#005c9d;fill-opacity:0.52156863"
     transform="translate(633.291,580.7207)"
     id="g5051"><path
       inkscape:connector-curvature="0"
       id="path5053"
       style="fill:#005c9d;fill-opacity:0.52156863;fill-rule:evenodd;stroke:none"
       d="M 0,0 -12.373,7.214 -12.279,4.36 0.104,-2.853 Z" /></g><g
     style="fill:#005c9d;fill-opacity:0.52156863"
     transform="translate(613.6113,616.1172)"
     id="g5055"><path
       inkscape:connector-curvature="0"
       id="path5057"
       style="fill:#005c9d;fill-opacity:0.52156863;fill-rule:nonzero;stroke:none"
       d="m 0,0 -0.037,2.464 -12.388,-4.065 0.015,-2.512 z" /></g><g
     style="fill:#005c9d;fill-opacity:0.52156863"
     transform="translate(613.6113,608.5401)"
     id="g5059"><path
       inkscape:connector-curvature="0"
       id="path5061"
       style="fill:#005c9d;fill-opacity:0.52156863;fill-rule:nonzero;stroke:none"
       d="m 0,0 -0.037,2.461 -12.36,-4.061 0.008,-2.498 z" /></g><g
     style="fill:#005c9d;fill-opacity:0.52156863"
     transform="translate(613.6113,600.9698)"
     id="g5063"><path
       inkscape:connector-curvature="0"
       id="path5065"
       style="fill:#005c9d;fill-opacity:0.52156863;fill-rule:nonzero;stroke:none"
       d="m 0,0 -0.037,2.46 -12.33,-4.046 0.007,-2.518 z" /></g><g
     style="fill:#005c9d;fill-opacity:0.52156863"
     transform="translate(613.6113,592.9922)"
     id="g5067"><path
       inkscape:connector-curvature="0"
       id="path5069"
       style="fill:#005c9d;fill-opacity:0.52156863;fill-rule:nonzero;stroke:none"
       d="m 0,0 -0.037,2.466 -12.308,-4.046 0.006,-2.513 z" /></g><g
     style="fill:#005c9d;fill-opacity:0.52156863"
     transform="translate(613.6113,585.0157)"
     id="g5071"><path
       inkscape:connector-curvature="0"
       id="path5073"
       style="fill:#005c9d;fill-opacity:0.52156863;fill-rule:nonzero;stroke:none"
       d="m 0,0 -0.037,2.464 -12.286,-4.036 0.007,-2.514 z" /></g></g>

</g></svg>