<?xml version="1.0" encoding="UTF-8" standalone="no"?>
<!-- Created with Inkscape (http://www.inkscape.org/) -->

<svg
   xmlns:dc="http://purl.org/dc/elements/1.1/"
   xmlns:cc="http://creativecommons.org/ns#"
   xmlns:rdf="http://www.w3.org/1999/02/22-rdf-syntax-ns#"
   xmlns:svg="http://www.w3.org/2000/svg"
   xmlns="http://www.w3.org/2000/svg"
   xmlns:sodipodi="http://sodipodi.sourceforge.net/DTD/sodipodi-0.dtd"
   xmlns:inkscape="http://www.inkscape.org/namespaces/inkscape"
   version="1.1"
   id="svg4627"
   xml:space="preserve"
   width="157.80331"
   height="92.04155"
   viewBox="0 0 157.8033 92.04155"
   sodipodi:docname="logo.svg"
   inkscape:version="0.91 r13725"><metadata
     id="metadata4633"><rdf:RDF><cc:Work
         rdf:about=""><dc:format>image/svg+xml</dc:format><dc:type
           rdf:resource="http://purl.org/dc/dcmitype/StillImage" /><dc:title></dc:title></cc:Work></rdf:RDF></metadata><defs
     id="defs4631"><clipPath
       clipPathUnits="userSpaceOnUse"
       id="clipPath4645"><path
         d="M 0,800 800,800 800,0 0,0 Z"
         id="path4643"
         inkscape:connector-curvature="0" /></clipPath><clipPath
       clipPathUnits="userSpaceOnUse"
       id="clipPath4841"><path
         d="M 0,800 800,800 800,0 0,0 Z"
         id="path4839"
         inkscape:connector-curvature="0" /></clipPath><clipPath
       clipPathUnits="userSpaceOnUse"
       id="clipPath5089"><path
         d="M 0,800 800,800 800,0 0,0 Z"
         id="path5087"
         inkscape:connector-curvature="0" /></clipPath><clipPath
       clipPathUnits="userSpaceOnUse"
       id="clipPath5233"><path
         d="M 0,800 800,800 800,0 0,0 Z"
         id="path5231"
         inkscape:connector-curvature="0" /></clipPath></defs><sodipodi:namedview
     pagecolor="#ffffff"
     bordercolor="#666666"
     borderopacity="1"
     objecttolerance="10"
     gridtolerance="10"
     guidetolerance="10"
     inkscape:pageopacity="0"
     inkscape:pageshadow="2"
     inkscape:window-width="1215"
     inkscape:window-height="1000"
     id="namedview4629"
     showgrid="false"
     fit-margin-top="0"
     fit-margin-left="0"
     fit-margin-right="0"
     fit-margin-bottom="0"
     inkscape:zoom="0.44249996"
     inkscape:cx="150.34653"
     inkscape:cy="-66.761425"
     inkscape:window-x="65"
     inkscape:window-y="24"
     inkscape:window-maximized="1"
     inkscape:current-layer="g4635" /><g
     id="g4635"
     inkscape:groupmode="layer"
     inkscape:label="constructionbuildings"
     transform="matrix(1.3333333,0,0,-1.3333333,1102.8135,1051.4958)"><g
       id="g4891"
       transform="matrix(0.60877152,0,0,0.4646945,96.099256,678.4868)"
       style="fill:#005c9d;fill-opacity:0.52156863"><path
         d="m -1349.0491,100.90667 0,17.843 -0.652,1.13 -8.098,5.048 0,24.236 -0.602,1.127 -18.999,12.188 -1.133,0.135 -18.729,-6.287 0.117,59.92 c 0,0.555 -0.277,1.066 -0.705,1.394 l -26.326,19.038 c -0.537,0.381 -1.218,0.428 -1.808,0.145 -0.557,-0.299 -0.921,-0.891 -0.921,-1.545 l 0,-24.133 -21.829,-13.367 c -0.5,-0.315 -0.821,-0.859 -0.821,-1.467 l 0,-33.518 -20.529,6.69 c -0.256,0.074 -0.496,0.074 -0.742,0.018 l -0.059,0.089 -0.378,-0.282 c 0,0 -0.013,-0.006 -0.013,-0.01 -0.014,-0.006 -0.014,-0.006 -0.021,-0.017 l -14.03,-10.254 c -0.357,-0.258 -0.56,-0.642 -0.56,-1.082 l 0,-53.717 c -19.455,-6.071005 -30.625,-12.792005 -30.625,-12.792005 0,0 19.418,5.431 44.684,9.621005 l 0,-0.024 c 0.884,0.152 1.771,0.272 2.666,0.406 l 0,0.05 c 14.648,2.341 31.053,4.199 46.672,4.333 58.358,0.499 100.39,-17.369004 100.39,-17.369004 -6.237,4.149999 -15.764,8.526999 -26.949,12.453004"
         style="fill:#005c9d;fill-opacity:0.52156863;fill-rule:evenodd;stroke:none"
         id="path4893"
         inkscape:connector-curvature="0" /></g><g
       id="g4951"
       transform="matrix(0.60877152,0,0,0.4646945,-783.24369,793.72794)"
       style="fill:#005c9d;fill-opacity:0.52156863" /><g
       id="g5007"
       transform="matrix(0.60877152,0,0,0.4646945,-764.69162,797.02486)"
       style="fill:#005c9d;fill-opacity:0.52156863" /><g
       id="g5011"
       transform="matrix(0.60877152,0,0,0.4646945,-764.69162,804.11187)"
       style="fill:#005c9d;fill-opacity:0.52156863" /></g></svg>